<svg width="1920" height="187" viewBox="0 0 1920 187" fill="none" xmlns="http://www.w3.org/2000/svg">
<path d="M1.59475e-05 91.2093L26.6667 96.4978C53.3334 102.185 106.667 112.164 160 101.886C213.333 91.2093 266.667 59.279 320 48.6022C373.333 38.3247 426.667 48.3029 480 53.9905C533.333 59.2789 586.667 59.2789 640 64.5674C693.333 70.2549 746.667 80.2331 800 85.9207C853.333 91.2092 906.667 91.2092 960 75.244C1013.33 59.2788 1066.67 27.3485 1120 11.3833C1173.33 -4.58187 1226.67 -4.58188 1280 16.6717C1333.33 38.3245 1386.67 80.233 1440 107.174C1493.33 134.115 1546.67 144.094 1600 128.428C1653.33 112.163 1706.67 70.2548 1760 64.5672C1813.33 59.2787 1866.67 91.209 1893.33 107.174L1920 123.139L1920 187L1893.33 187C1866.67 187 1813.33 187 1760 187C1706.67 187 1653.33 187 1600 187C1546.67 187 1493.33 187 1440 187C1386.67 187 1333.33 187 1280 187C1226.67 187 1173.33 187 1120 187C1066.67 187 1013.33 187 960 187C906.667 187 853.333 187 800 187C746.667 187 693.333 187 640 187C586.667 187 533.333 187 480 187C426.667 187 373.333 187 320 187C266.667 187 213.333 187 160 187C106.667 187 53.3334 187 26.6667 187L3.26962e-05 187L1.59475e-05 91.2093Z" fill="#131313"/>
</svg>
