<svg width="19" height="20" viewBox="0 0 19 20" fill="none" xmlns="http://www.w3.org/2000/svg">
<path d="M1.33327 13.2485L2.06432 13.0809L1.33327 13.2485ZM1.33327 7.35323L2.06432 7.52078L1.33327 7.35323ZM17.6667 7.35323L16.9357 7.52079L17.6667 7.35323ZM17.6667 13.2485L16.9357 13.0809L17.6667 13.2485ZM12.3801 18.6589L12.5552 19.3882L12.3801 18.6589ZM6.61986 18.6589L6.79493 17.9296L6.61986 18.6589ZM6.61985 1.94279L6.79493 2.67207L6.61985 1.94279ZM12.3801 1.94279L12.5552 1.21351L12.3801 1.94279ZM6.32008 1C6.32008 0.585786 5.98429 0.25 5.57008 0.25C5.15587 0.25 4.82008 0.585786 4.82008 1H6.32008ZM4.82008 3.51375C4.82008 3.92796 5.15587 4.26375 5.57008 4.26375C5.98429 4.26375 6.32008 3.92796 6.32008 3.51375H4.82008ZM14.1799 1C14.1799 0.585786 13.8441 0.25 13.4299 0.25C13.0157 0.25 12.6799 0.585786 12.6799 1H14.1799ZM12.6799 3.51375C12.6799 3.92796 13.0157 4.26375 13.4299 4.26375C13.8441 4.26375 14.1799 3.92796 14.1799 3.51375H12.6799ZM2.06432 13.0809C1.64523 11.2524 1.64523 9.34928 2.06432 7.52078L0.602229 7.18568C0.13259 9.23472 0.13259 11.367 0.602229 13.416L2.06432 13.0809ZM16.9357 7.52079C17.3548 9.34928 17.3548 11.2524 16.9357 13.0809L18.3978 13.416C18.8674 11.367 18.8674 9.23472 18.3978 7.18568L16.9357 7.52079ZM12.2051 17.9296C10.4258 18.3568 8.57424 18.3568 6.79493 17.9296L6.44478 19.3882C8.45425 19.8706 10.5458 19.8706 12.5552 19.3882L12.2051 17.9296ZM6.79493 2.67207C8.57424 2.24493 10.4258 2.24493 12.2051 2.67207L12.5552 1.21351C10.5458 0.731113 8.45425 0.731113 6.44478 1.21351L6.79493 2.67207ZM6.79493 17.9296C4.45607 17.3682 2.61769 15.4953 2.06432 13.0809L0.602229 13.416C1.27946 16.3708 3.53739 18.6902 6.44478 19.3882L6.79493 17.9296ZM12.5552 19.3882C15.4626 18.6902 17.7205 16.3708 18.3978 13.416L16.9357 13.0809C16.3823 15.4953 14.5439 17.3682 12.2051 17.9296L12.5552 19.3882ZM12.2051 2.67207C14.5439 3.23355 16.3823 5.10642 16.9357 7.52079L18.3978 7.18568C17.7205 4.23089 15.4626 1.91147 12.5552 1.21351L12.2051 2.67207ZM6.44478 1.21351C3.53739 1.91147 1.27946 4.23089 0.602229 7.18568L2.06432 7.52078C2.61769 5.10641 4.45607 3.23355 6.79493 2.67207L6.44478 1.21351ZM1.64016 7.02886H17.3598V5.52886H1.64016V7.02886ZM4.82008 1V3.51375H6.32008V1H4.82008ZM12.6799 1V3.51375H14.1799V1H12.6799Z" fill="white"/>
<path d="M10.9419 11.9239C11.3469 11.6359 11.5989 11.2039 11.5989 10.6189C11.5989 9.40393 10.6629 8.77393 9.55588 8.77393C8.44888 8.77393 7.50388 9.40393 7.50388 10.6189C7.50388 11.2039 7.76488 11.6359 8.16088 11.9239C7.61188 12.2569 7.29688 12.8059 7.29688 13.4449C7.29688 14.6059 8.15188 15.3259 9.55588 15.3259C10.9509 15.3259 11.8149 14.6059 11.8149 13.4449C11.8149 12.8059 11.4999 12.2569 10.9419 11.9239ZM9.55588 9.94393C10.0239 9.94393 10.3659 10.2139 10.3659 10.6819C10.3659 11.1409 10.0239 11.4289 9.55588 11.4289C9.08788 11.4289 8.74588 11.1409 8.74588 10.6819C8.74588 10.2139 9.08788 9.94393 9.55588 9.94393ZM9.55588 14.1559C8.96188 14.1559 8.52988 13.8499 8.52988 13.2829C8.52988 12.7249 8.96188 12.4189 9.55588 12.4189C10.1499 12.4189 10.5819 12.7249 10.5819 13.2829C10.5819 13.8499 10.1499 14.1559 9.55588 14.1559Z" fill="white"/>
</svg>
