<svg width="30" height="26" viewBox="0 0 30 26" fill="none" xmlns="http://www.w3.org/2000/svg">
<path d="M13.0745 18.7978C13.6085 19.1253 14.2923 19.3057 15 19.3057C15.7078 19.3057 16.3916 19.1253 16.9255 18.7978L25.6429 13.4514C25.6429 13.4514 26.4297 12.9691 26.4297 14.0617C26.4297 15.3024 26.4297 19.0244 26.4297 19.0244C26.4297 19.0741 26.4297 19.3232 26.4297 19.4004C26.4297 22.2128 21.3125 25.2447 15.0003 25.2447C8.68798 25.2447 3.57083 22.2129 3.57083 19.4004C3.57083 19.3232 3.57083 19.0741 3.57083 19.0244C3.57083 19.0244 3.57083 15.0766 3.57083 13.7607C3.57083 12.8837 4.13019 13.3122 4.13019 13.3122L13.0745 18.7978Z" fill="#222222"/>
<path d="M0.502369 9.19854C-0.167456 8.78776 -0.167456 8.11553 0.502369 7.70467L13.7822 1.06395C14.452 0.653164 15.5481 0.653164 16.2179 1.06395L29.4976 7.70467C30.1675 8.11545 30.1675 8.78768 29.4976 9.19854L16.2179 17.3431C15.5481 17.7539 14.452 17.7539 13.7822 17.3431" fill="#222222"/>
<path d="M1.05153 21.2708C1.05153 19.0221 1.05153 12.2758 1.05153 12.2758C1.05153 12.2758 1.04529 11.8497 1.29809 11.9904C1.50089 12.1033 1.99799 12.3804 2.17312 12.5327C2.37531 12.7084 2.32975 13.1029 2.32975 13.1029C2.32975 13.1029 2.32975 19.2288 2.32975 21.2708C2.32975 21.3868 2.42938 21.4421 2.4769 21.4701C2.93596 21.7399 3.24463 22.2381 3.24463 22.8092C3.24463 23.6675 2.54894 24.3632 1.6906 24.3632C0.832341 24.3632 0.136648 23.6675 0.136648 22.8092C0.136648 22.2359 0.447576 21.7362 0.909566 21.467C0.955509 21.4402 1.05153 21.3867 1.05153 21.2708Z" fill="#222222"/>
</svg>
