<svg width="15" height="15" viewBox="0 0 15 15" fill="none" xmlns="http://www.w3.org/2000/svg">
<path d="M7.5 2.90323C4.96127 2.90323 2.90323 4.96127 2.90323 7.5C2.90323 10.0387 4.96127 12.0968 7.5 12.0968C10.0387 12.0968 12.0968 10.0387 12.0968 7.5C12.0968 4.96127 10.0387 2.90323 7.5 2.90323Z" fill="#D3C438"/>
<path fill-rule="evenodd" clip-rule="evenodd" d="M7.5 0C7.90085 0 8.22581 0.324955 8.22581 0.725806V0.78146C8.22581 1.18231 7.90085 1.50727 7.5 1.50727C7.09915 1.50727 6.77419 1.18231 6.77419 0.78146V0.725806C6.77419 0.324955 7.09915 0 7.5 0ZM2.14805 2.14807C2.43149 1.86462 2.89105 1.86462 3.17449 2.14807L3.26249 2.23606C3.54594 2.51951 3.54594 2.97906 3.26249 3.26251C2.97905 3.54595 2.51949 3.54595 2.23605 3.26251L2.14805 3.17451C1.8646 2.89107 1.8646 2.43151 2.14805 2.14807ZM12.852 2.14807C13.1354 2.43151 13.1354 2.89107 12.852 3.17451L12.764 3.26251C12.4805 3.54596 12.021 3.54596 11.7375 3.26251C11.4541 2.97906 11.4541 2.51951 11.7375 2.23606L11.8255 2.14807C12.109 1.86462 12.5685 1.86462 12.852 2.14807ZM0 7.5C0 7.09915 0.324955 6.77419 0.725806 6.77419H0.78146C1.18231 6.77419 1.50727 7.09915 1.50727 7.5C1.50727 7.90085 1.18231 8.22581 0.78146 8.22581H0.725806C0.324955 8.22581 0 7.90085 0 7.5ZM13.4928 7.5C13.4928 7.09915 13.8177 6.77419 14.2186 6.77419H14.2742C14.675 6.77419 15 7.09915 15 7.5C15 7.90085 14.675 8.22581 14.2742 8.22581H14.2186C13.8177 8.22581 13.4928 7.90085 13.4928 7.5ZM11.7375 11.7376C12.0209 11.4541 12.4804 11.4541 12.7639 11.7375L12.8519 11.8254C13.1354 12.1089 13.1354 12.5684 12.852 12.8519C12.5686 13.1354 12.109 13.1354 11.8255 12.852L11.7376 12.764C11.4541 12.4806 11.4541 12.0211 11.7375 11.7376ZM3.26244 11.7375C3.54591 12.0209 3.54597 12.4804 3.26255 12.7639L3.17458 12.8519C2.89117 13.1354 2.43161 13.1355 2.14813 12.852C1.86466 12.5686 1.8646 12.1091 2.14802 11.8256L2.23599 11.7376C2.5194 11.4541 2.97896 11.4541 3.26244 11.7375ZM7.5 13.4928C7.90085 13.4928 8.22581 13.8177 8.22581 14.2186V14.2742C8.22581 14.675 7.90085 15 7.5 15C7.09915 15 6.7742 14.675 6.7742 14.2742V14.2186C6.7742 13.8177 7.09915 13.4928 7.5 13.4928Z" fill="#D3C438"/>
</svg>
