<svg width="18" height="18" viewBox="0 0 18 18" fill="none" xmlns="http://www.w3.org/2000/svg">
<path d="M16.2375 14.3526C17.3816 12.8125 18 10.9538 18 9C18 6.59602 17.0639 4.33593 15.364 2.63602C13.6641 0.936176 11.404 0 9 0V1.05469C11.1223 1.05469 13.1175 1.88114 14.6182 3.38182C16.1189 4.8825 16.9453 6.87772 16.9453 9C16.9453 10.7143 16.4058 12.3456 15.4075 13.7004L15.2866 12.3184L14.2359 12.4103L14.5117 15.5623L17.6637 15.2866L17.5718 14.2359L16.2375 14.3526Z" fill="black"/>
<path d="M1.05469 9.00032C1.05469 7.286 1.59423 5.65475 2.59249 4.29993L2.71339 5.68189L3.76407 5.58999L3.48831 2.43799L0.33627 2.71372L0.428168 3.7644L1.76245 3.64768C0.618363 5.18784 0 7.04655 0 9.00032C0 11.4043 0.936141 13.6644 2.63602 15.3643C4.33593 17.0641 6.59602 18.0003 9 18.0003V16.9456C6.87772 16.9456 4.88246 16.1192 3.38182 14.6185C1.88114 13.1178 1.05469 11.1226 1.05469 9.00032Z" fill="black"/>
<path d="M9 10.6172C9.89315 10.6172 10.6172 9.89315 10.6172 9C10.6172 8.10685 9.89315 7.38281 9 7.38281C8.10685 7.38281 7.38281 8.10685 7.38281 9C7.38281 9.89315 8.10685 10.6172 9 10.6172Z" fill="black"/>
<path d="M13.8861 6.85804L12.8513 7.19427C12.6202 6.70345 12.2981 6.26368 11.9067 5.89686L12.5473 5.01521L11.694 4.39527L11.0542 5.27586C10.5911 5.0194 10.0754 4.84678 9.52766 4.77875V3.69141H8.47297V4.77875C7.92523 4.84678 7.40956 5.01943 6.94641 5.27586L6.30664 4.39527L5.45336 5.01521L6.09391 5.89686C5.70252 6.26368 5.38034 6.70342 5.1493 7.19427L4.11451 6.85804L3.78857 7.86108L4.82273 8.1971C4.77284 8.45722 4.74641 8.72557 4.74641 9C4.74641 9.27443 4.77284 9.54278 4.82273 9.8029L3.78857 10.1389L4.11451 11.142L5.1493 10.8057C5.38038 11.2965 5.70252 11.7363 6.09391 12.1031L5.45336 12.9848L6.30664 13.6047L6.94641 12.7241C7.40956 12.9806 7.92523 13.1532 8.47297 13.2212V14.3086H9.52766V13.2212C10.0754 13.1532 10.5911 12.9806 11.0542 12.7241L11.694 13.6047L12.5473 12.9848L11.9067 12.1031C12.2981 11.7363 12.6203 11.2966 12.8513 10.8057L13.8861 11.142L14.2121 10.1389L13.1779 9.8029C13.2278 9.54278 13.2542 9.27443 13.2542 9C13.2542 8.72557 13.2278 8.45722 13.1779 8.1971L14.2121 7.86108L13.8861 6.85804ZM11.6722 9C11.6722 10.4733 10.4736 11.6719 9.00031 11.6719C7.52702 11.6719 6.32844 10.4733 6.32844 9C6.32844 7.52674 7.52702 6.32812 9.00031 6.32812C10.4736 6.32812 11.6722 7.52674 11.6722 9Z" fill="black"/>
</svg>
