<svg width="18" height="16" viewBox="0 0 18 16" fill="none" xmlns="http://www.w3.org/2000/svg">
<path d="M17.5563 0.444035C17.2746 0.162574 16.9002 0.00510909 16.5022 0.000609085C16.4963 0.000538772 16.4905 0.00050354 16.4847 0.00050354C16.093 0.00050354 15.7219 0.149179 15.4381 0.420445L6.9917 8.49679C7.89578 8.72723 8.66805 9.30738 9.17293 10.156C9.32678 10.4146 9.44923 10.6884 9.54042 10.9709L17.5803 2.56252C17.851 2.27926 18.0001 1.90755 18.0001 1.51588C18.0001 1.11134 17.8427 0.730839 17.5563 0.444035Z" fill="#131313"/>
<path d="M6.20817 9.44214C6.16567 9.44035 6.12316 9.43947 6.0807 9.43947C5.36797 9.43947 4.66105 9.68732 4.08438 10.1022C3.38927 10.6023 3.1121 11.3206 2.6017 11.975C1.96172 12.7955 0.977168 13.1967 0 13.4703C0.569074 14.9743 2.68313 15.5901 4.06941 15.6233C4.11919 15.6245 4.16921 15.6251 4.21963 15.6251C5.78922 15.6251 7.63798 15.0417 8.39461 13.4973C9.22528 11.802 8.20139 9.52557 6.20817 9.44214Z" fill="#131313"/>
</svg>
