<svg width="17" height="18" viewBox="0 0 17 18" fill="none" xmlns="http://www.w3.org/2000/svg">
<path d="M1.29406 11.8075L2.02511 11.6399L1.29406 11.8075ZM1.29406 6.60579L2.02511 6.77334L1.29406 6.60579ZM15.7059 6.60579L14.9749 6.77335L15.7059 6.60579ZM15.7059 11.8075L14.9749 11.6399L15.7059 11.8075ZM11.0413 16.5814L11.2164 17.3107L11.0413 16.5814ZM5.9587 16.5814L6.13377 15.8521L5.9587 16.5814ZM5.95869 1.83188L6.13377 2.56116L5.95869 1.83188ZM11.0413 1.83188L11.2164 1.1026L11.0413 1.83188ZM5.78242 1C5.78242 0.585786 5.44664 0.25 5.03242 0.25C4.61821 0.25 4.28242 0.585786 4.28242 1H5.78242ZM4.28242 3.21801C4.28242 3.63222 4.61821 3.96801 5.03242 3.96801C5.44664 3.96801 5.78242 3.63222 5.78242 3.21801H4.28242ZM12.7176 1C12.7176 0.585786 12.3818 0.25 11.9676 0.25C11.5534 0.25 11.2176 0.585786 11.2176 1H12.7176ZM11.2176 3.21801C11.2176 3.63222 11.5534 3.96801 11.9676 3.96801C12.3818 3.96801 12.7176 3.63222 12.7176 3.21801H11.2176ZM2.02511 11.6399C1.6583 10.0395 1.6583 8.37375 2.02511 6.77334L0.563021 6.43824C0.14566 8.25919 0.14566 10.1541 0.563021 11.975L2.02511 11.6399ZM14.9749 6.77335C15.3417 8.37375 15.3417 10.0395 14.9749 11.6399L16.437 11.975C16.8543 10.1541 16.8543 8.25919 16.437 6.43824L14.9749 6.77335ZM10.8662 15.8521C9.3098 16.2258 7.69021 16.2258 6.13377 15.8521L5.78362 17.3107C7.57022 17.7396 9.42978 17.7396 11.2164 17.3107L10.8662 15.8521ZM6.13377 2.56116C7.69021 2.18751 9.3098 2.18751 10.8662 2.56116L11.2164 1.1026C9.42978 0.673698 7.57022 0.673699 5.78362 1.1026L6.13377 2.56116ZM6.13377 15.8521C4.10352 15.3647 2.50609 13.7385 2.02511 11.6399L0.563021 11.975C1.16787 14.614 3.18484 16.6868 5.78362 17.3107L6.13377 15.8521ZM11.2164 17.3107C13.8152 16.6868 15.8321 14.614 16.437 11.975L14.9749 11.6399C14.4939 13.7385 12.8965 15.3647 10.8662 15.8521L11.2164 17.3107ZM10.8662 2.56116C12.8965 3.04855 14.4939 4.67481 14.9749 6.77335L16.437 6.43824C15.8321 3.79928 13.8152 1.72647 11.2164 1.1026L10.8662 2.56116ZM5.78362 1.1026C3.18483 1.72647 1.16787 3.79928 0.563021 6.43824L2.02511 6.77334C2.50609 4.67481 4.10351 3.04855 6.13377 2.56116L5.78362 1.1026ZM1.56485 6.40782H15.4352V4.90782H1.56485V6.40782ZM4.28242 1V3.21801H5.78242V1H4.28242ZM11.2176 1V3.21801H12.7176V1H11.2176Z" fill="#8C8C8C"/>
<path d="M9.77233 10.6388C10.1297 10.3847 10.352 10.0035 10.352 9.48732C10.352 8.41526 9.52615 7.85938 8.54939 7.85938C7.57262 7.85938 6.7388 8.41526 6.7388 9.48732C6.7388 10.0035 6.96909 10.3847 7.31851 10.6388C6.83409 10.9326 6.55615 11.417 6.55615 11.9808C6.55615 13.0053 7.31056 13.6406 8.54939 13.6406C9.78027 13.6406 10.5426 13.0053 10.5426 11.9808C10.5426 11.417 10.2647 10.9326 9.77233 10.6388ZM8.54939 8.89173C8.96233 8.89173 9.26409 9.12996 9.26409 9.5429C9.26409 9.9479 8.96233 10.202 8.54939 10.202C8.13645 10.202 7.83468 9.9479 7.83468 9.5429C7.83468 9.12996 8.13645 8.89173 8.54939 8.89173ZM8.54939 12.6082C8.02527 12.6082 7.64409 12.3382 7.64409 11.8379C7.64409 11.3456 8.02527 11.0756 8.54939 11.0756C9.07351 11.0756 9.45468 11.3456 9.45468 11.8379C9.45468 12.3382 9.07351 12.6082 8.54939 12.6082Z" fill="#8C8C8C"/>
</svg>
