<svg width="15" height="15" viewBox="0 0 15 15" fill="none" xmlns="http://www.w3.org/2000/svg">
<path d="M13.2015 0.221963C13.0966 -0.0739875 12.6781 -0.0739877 12.5732 0.221963L12.2138 1.2363C12.1802 1.33103 12.1057 1.40556 12.011 1.43913L10.9966 1.79854C10.7007 1.9034 10.7007 2.32194 10.9966 2.42681L12.011 2.78622C12.1057 2.81979 12.1802 2.89431 12.2138 2.98905L12.5732 4.00338C12.6781 4.29933 13.0966 4.29933 13.2015 4.00338L13.5609 2.98905C13.5944 2.89431 13.669 2.81979 13.7637 2.78622L14.778 2.42681C15.074 2.32194 15.074 1.9034 14.778 1.79854L13.7637 1.43913C13.669 1.40556 13.5944 1.33103 13.5609 1.2363L13.2015 0.221963Z" fill="#757CDC"/>
<path d="M9.29004 3.53361C9.36248 3.32917 9.65161 3.32916 9.72405 3.53361L9.92214 4.09267C9.94533 4.15811 9.99681 4.20959 10.0623 4.23278L10.6213 4.43087C10.8258 4.50331 10.8258 4.79245 10.6213 4.86489L10.0623 5.06298C9.99681 5.08617 9.94533 5.13765 9.92214 5.20309L9.72405 5.76215C9.65161 5.9666 9.36248 5.9666 9.29004 5.76215L9.09194 5.20309C9.06875 5.13765 9.01727 5.08617 8.95183 5.06298L8.39277 4.86489C8.18832 4.79245 8.18832 4.50331 8.39277 4.43087L8.95183 4.23278C9.01727 4.20959 9.06875 4.15811 9.09194 4.09267L9.29004 3.53361Z" fill="#757CDC"/>
<path d="M11.475 6.01771C11.5233 5.88141 11.7161 5.88141 11.7644 6.01771L11.8965 6.39041C11.9119 6.43404 11.9462 6.46836 11.9899 6.48382L12.3626 6.61588C12.4989 6.66418 12.4989 6.85693 12.3626 6.90522L11.9899 7.03729C11.9462 7.05275 11.9119 7.08707 11.8965 7.1307L11.7644 7.5034C11.7161 7.6397 11.5233 7.6397 11.475 7.5034L11.343 7.1307C11.3275 7.08707 11.2932 7.05275 11.2496 7.03729L10.8769 6.90522C10.7406 6.85693 10.7406 6.66418 10.8769 6.61588L11.2496 6.48382C11.2932 6.46836 11.3275 6.43404 11.343 6.39041L11.475 6.01771Z" fill="#757CDC"/>
<path d="M6.7789 1.37568C6.90788 1.60136 6.88598 1.88291 6.72367 2.08593C6.04259 2.93785 5.63935 4.00432 5.63935 5.16203C5.63935 7.92317 7.94804 10.1923 10.8345 10.1923C11.6274 10.1923 12.3767 10.0208 13.0467 9.71495C13.2822 9.60748 13.5593 9.65398 13.7468 9.83242C13.9343 10.0109 13.9944 10.2854 13.8987 10.5259C12.8541 13.151 10.239 15 7.19141 15C3.23697 15 0 11.8804 0 7.99408C0 4.45922 2.67972 1.5573 6.13892 1.06274C6.39624 1.02595 6.64993 1.15 6.7789 1.37568Z" fill="#757CDC"/>
</svg>
