<svg width="21" height="20" viewBox="0 0 21 20" fill="none" xmlns="http://www.w3.org/2000/svg">
<path d="M1.38539 13.1513L2.11329 12.9705L1.38539 13.1513ZM1.38539 6.84875L2.11329 7.02949L1.38539 6.84875ZM19.6146 6.84875L20.3425 6.66801L19.6146 6.84875ZM19.6146 13.1512L18.8867 12.9705L19.6146 13.1512ZM13.6156 18.659L13.4533 17.9267H13.4533L13.6156 18.659ZM7.38443 18.659L7.54668 17.9267L7.38443 18.659ZM7.38443 1.34105L7.54668 2.07329L7.38443 1.34105ZM13.6156 1.34105L13.7778 0.60881V0.60881L13.6156 1.34105ZM6.93056 18.5584L6.7683 19.2906L6.93056 18.5584ZM14.0694 18.5584L14.2317 19.2906H14.2317L14.0694 18.5584ZM14.0694 1.44162L13.9072 2.17386V2.17386L14.0694 1.44162ZM6.93056 1.44162L6.7683 0.70938V0.70938L6.93056 1.44162ZM7.08712 7.73987C6.75008 7.49907 6.28166 7.57709 6.04087 7.91413C5.80008 8.25116 5.8781 8.71958 6.21513 8.96038L7.08712 7.73987ZM9.22165 10.1866L9.65764 9.57636L9.22165 10.1866ZM11.7783 10.1866L12.2143 10.7969H12.2143L11.7783 10.1866ZM14.7849 8.96038C15.1219 8.71958 15.1999 8.25116 14.9591 7.91413C14.7183 7.57709 14.2499 7.49907 13.9129 7.73987L14.7849 8.96038ZM7.09281 2.17386L7.54668 2.07329L7.22218 0.608809L6.7683 0.70938L7.09281 2.17386ZM13.4533 2.07329L13.9072 2.17386L14.2317 0.709379L13.7778 0.60881L13.4533 2.07329ZM13.9072 17.8261L13.4533 17.9267L13.7778 19.3912L14.2317 19.2906L13.9072 17.8261ZM7.54668 17.9267L7.09281 17.8261L6.7683 19.2906L7.22218 19.3912L7.54668 17.9267ZM2.11329 12.9705C1.6289 11.0198 1.6289 8.9802 2.11329 7.02949L0.657498 6.668C0.114168 8.8561 0.114167 11.1439 0.657498 13.332L2.11329 12.9705ZM18.8867 7.0295C19.3711 8.9802 19.3711 11.0198 18.8867 12.9705L20.3425 13.332C20.8858 11.1439 20.8858 8.8561 20.3425 6.66801L18.8867 7.0295ZM13.4533 17.9267C11.508 18.3578 9.49198 18.3578 7.54668 17.9267L7.22218 19.3912C9.38122 19.8696 11.6188 19.8696 13.7778 19.3912L13.4533 17.9267ZM7.54668 2.07329C9.49198 1.64224 11.508 1.64224 13.4533 2.07329L13.7778 0.60881C11.6188 0.130397 9.38122 0.130397 7.22218 0.608809L7.54668 2.07329ZM7.09281 17.8261C4.64627 17.284 2.71736 15.4032 2.11329 12.9705L0.657498 13.332C1.39874 16.3171 3.76576 18.6253 6.7683 19.2906L7.09281 17.8261ZM14.2317 19.2906C17.2342 18.6253 19.6013 16.3171 20.3425 13.332L18.8867 12.9705C18.2826 15.4032 16.3537 17.284 13.9072 17.8261L14.2317 19.2906ZM13.9072 2.17386C16.3537 2.71598 18.2826 4.5968 18.8867 7.0295L20.3425 6.66801C19.6013 3.68288 17.2342 1.3747 14.2317 0.709379L13.9072 2.17386ZM6.7683 0.70938C3.76576 1.3747 1.39874 3.68288 0.657498 6.668L2.11329 7.02949C2.71736 4.59679 4.64627 2.71598 7.09281 2.17386L6.7683 0.70938ZM6.21513 8.96038L8.78566 10.7969L9.65764 9.57636L7.08712 7.73987L6.21513 8.96038ZM12.2143 10.7969L14.7849 8.96038L13.9129 7.73987L11.3424 9.57636L12.2143 10.7969ZM8.78566 10.7969C9.81117 11.5295 11.1888 11.5295 12.2143 10.7969L11.3424 9.57636C10.8384 9.93637 10.1616 9.93637 9.65764 9.57636L8.78566 10.7969Z" fill="white"/>
</svg>
