<svg width="18" height="16" viewBox="0 0 18 16" fill="none" xmlns="http://www.w3.org/2000/svg">
<path d="M2.62003 15.849H1.3446L2.24649 14.9472C2.73277 14.4609 3.03644 13.8284 3.11808 13.1423C1.84913 12.3095 0.921224 11.2139 0.424516 9.95749C-0.0718407 8.702 -0.134215 7.31993 0.244154 5.96065C0.698141 4.32964 1.76295 2.84303 3.24237 1.77463C4.85002 0.613674 6.85137 0 9.03008 0C11.7747 0 14.0881 0.788542 15.7201 2.28032C17.1903 3.62429 18 5.4371 18 7.38487C18 8.33117 17.8073 9.25192 17.4273 10.1216C17.0341 11.0215 16.4583 11.8228 15.7159 12.5031C14.0817 14.0008 11.7697 14.7924 9.03005 14.7924C8.013 14.7924 6.95171 14.6567 6.00418 14.4075C5.10731 15.3276 3.89197 15.849 2.62003 15.849ZM9.03008 1.0566C4.66142 1.0566 1.98079 3.66194 1.26205 6.24399C0.582865 8.68404 1.58407 10.9896 3.94029 12.4116L4.20356 12.5704L4.19546 12.8778C4.1794 13.4862 4.03436 14.0722 3.77475 14.6019C4.40692 14.388 4.98055 14.0002 5.42975 13.4695L5.65311 13.2056L5.98436 13.3047C6.91392 13.5827 7.99556 13.7358 9.03008 13.7358C14.4671 13.7358 16.9434 10.4437 16.9434 7.38487C16.9434 5.73742 16.2558 4.20154 15.0071 3.0602C13.5732 1.74945 11.5064 1.0566 9.03008 1.0566Z" fill="black"/>
</svg>
