<svg width="1920" height="215" viewBox="0 0 1920 215" fill="none" xmlns="http://www.w3.org/2000/svg">
<path d="M2.53483e-06 104.866L26.6667 110.946C53.3333 117.486 106.667 128.958 160 117.141C213.333 104.866 266.667 68.1548 320 55.8795C373.333 44.0631 426.667 55.5353 480 62.0745C533.333 68.1548 586.667 68.1548 640 74.2351C693.333 80.7743 746.667 92.2466 800 98.7858C853.333 104.866 906.667 104.866 960 86.5104C1013.33 68.1548 1066.67 31.4436 1120 13.0879C1173.33 -5.26767 1226.67 -5.26767 1280 19.1683C1333.33 44.0631 1386.67 92.2466 1440 123.222C1493.33 154.197 1546.67 165.669 1600 147.658C1653.33 128.958 1706.67 80.7743 1760 74.2351C1813.33 68.1548 1866.67 104.866 1893.33 123.222L1920 141.577L1920 215H1893.33C1866.67 215 1813.33 215 1760 215C1706.67 215 1653.33 215 1600 215C1546.67 215 1493.33 215 1440 215C1386.67 215 1333.33 215 1280 215C1226.67 215 1173.33 215 1120 215C1066.67 215 1013.33 215 960 215C906.667 215 853.333 215 800 215C746.667 215 693.333 215 640 215C586.667 215 533.333 215 480 215C426.667 215 373.333 215 320 215C266.667 215 213.333 215 160 215C106.667 215 53.3333 215 26.6667 215H5.19699e-06L2.53483e-06 104.866Z" fill="#222222"/>
</svg>
