<svg width="1920" height="215" viewBox="0 0 1920 215" fill="none" xmlns="http://www.w3.org/2000/svg">
<path d="M1920 110.134L1893.33 104.054C1866.67 97.5144 1813.33 86.0422 1760 97.8586C1706.67 110.134 1653.33 146.845 1600 159.12C1546.67 170.937 1493.33 159.465 1440 152.925C1386.67 146.845 1333.33 146.845 1280 140.765C1226.67 134.226 1173.33 122.753 1120 116.214C1066.67 110.134 1013.33 110.134 960 128.489C906.667 146.845 853.333 183.556 800 201.912C746.667 220.268 693.333 220.268 640 195.832C586.667 170.937 533.333 122.753 480 91.7782C426.667 60.803 373.333 49.3308 320 67.3422C266.667 86.042 213.333 134.226 160 140.765C106.667 146.845 53.3333 110.134 26.6666 91.7781L1.07837e-05 73.4225L1.63762e-05 5.71088e-06L26.6666 8.38662e-06C53.3333 1.10624e-05 106.667 1.64138e-05 160 2.17653e-05C213.333 2.71168e-05 266.667 3.24683e-05 320 3.78198e-05C373.333 4.31713e-05 426.667 4.85227e-05 480 5.38742e-05C533.333 5.92257e-05 586.667 6.45772e-05 640 6.99287e-05C693.333 7.52801e-05 746.667 8.06316e-05 800 8.59831e-05C853.333 9.13346e-05 906.667 9.66861e-05 960 0.000102038C1013.33 0.000107389 1066.67 0.000112741 1120 0.000118092C1173.33 0.000123443 1226.67 0.000128795 1280 0.000134146C1333.33 0.000139498 1386.67 0.000144849 1440 0.000150201C1493.33 0.000155552 1546.67 0.000160904 1600 0.000166255C1653.33 0.000171607 1706.67 0.000176958 1760 0.00018231C1813.33 0.000187661 1866.67 0.000193013 1893.33 0.000195689L1920 0.000198364L1920 110.134Z" fill="#131313"/>
</svg>
