<svg width="12" height="19" viewBox="0 0 12 19" fill="none" xmlns="http://www.w3.org/2000/svg">
<path fill-rule="evenodd" clip-rule="evenodd" d="M0 2.43023C0 1.08805 1.08805 0 2.43023 0H9.5C10.8422 0 11.9302 1.08805 11.9302 2.43023V16.5698C11.9302 17.912 10.8422 19 9.5 19H2.43023C1.08805 19 0 17.912 0 16.5698V2.43023ZM2.43023 1.32558C1.82015 1.32558 1.32558 1.82015 1.32558 2.43023V16.5698C1.32558 17.1799 1.82015 17.6744 2.43023 17.6744H9.5C10.1101 17.6744 10.6047 17.1799 10.6047 16.5698V2.43023C10.6047 1.82015 10.1101 1.32558 9.5 1.32558H2.43023Z" fill="#131313"/>
<path fill-rule="evenodd" clip-rule="evenodd" d="M3.31416 0C2.94811 0 2.65137 0.296745 2.65137 0.662791V1.54651C2.65137 2.40063 3.34376 3.09302 4.19788 3.09302H7.73276C8.58688 3.09302 9.27927 2.40063 9.27927 1.54651V0.662791C9.27927 0.296745 8.98252 0 8.61648 0H3.31416Z" fill="#131313"/>
</svg>
