<svg width="13" height="14" viewBox="0 0 13 14" fill="none" xmlns="http://www.w3.org/2000/svg">
<path fill-rule="evenodd" clip-rule="evenodd" d="M0.248227 4.66799C-0.0827425 6.07896 -0.0827421 7.54738 0.248227 8.95835C0.72619 10.996 2.31719 12.587 4.35482 13.0649C5.76579 13.3959 7.23421 13.3959 8.64519 13.0649C10.6828 12.587 12.2738 10.996 12.7518 8.95835C13.0827 7.54738 13.0827 6.07896 12.7518 4.66799C12.2738 2.63036 10.6828 1.03936 8.64518 0.561397C7.23421 0.230429 5.76579 0.23043 4.35482 0.561398C2.31719 1.03936 0.72619 2.63036 0.248227 4.66799ZM7.05307 9.12932C7.05307 9.4157 6.82092 9.64785 6.53454 9.64785C6.24817 9.64785 6.01601 9.4157 6.01601 9.12932C6.01601 8.84294 6.24817 8.61079 6.53454 8.61079C6.82092 8.61079 7.05307 8.84294 7.05307 9.12932ZM5.53206 5.36133C5.53206 4.82676 5.96541 4.3934 6.49998 4.3934C7.03455 4.3934 7.4679 4.82676 7.4679 5.36133V5.4452C7.4679 5.72416 7.35709 5.99169 7.15984 6.18894L6.20666 7.14212C6.04466 7.30412 6.04466 7.56677 6.20666 7.72877C6.36866 7.89077 6.63131 7.89077 6.79331 7.72877L7.74649 6.77559C8.09933 6.42275 8.29755 5.9442 8.29755 5.4452V5.36133C8.29755 4.36856 7.49275 3.56376 6.49998 3.56376C5.50721 3.56376 4.70241 4.36856 4.70241 5.36133V5.70701C4.70241 5.93612 4.88813 6.12184 5.11723 6.12184C5.34634 6.12184 5.53206 5.93612 5.53206 5.70701V5.36133Z" fill="white"/>
</svg>
