<svg width="19" height="16" viewBox="0 0 19 16" fill="none" xmlns="http://www.w3.org/2000/svg">
<path fill-rule="evenodd" clip-rule="evenodd" d="M5.36856 10.3936L0.774224 8.41048C0.291718 8.20173 -0.0149988 7.72014 0.000565856 7.1946C0.0170461 6.66907 0.351233 6.2067 0.845641 6.02817C4.19938 4.81412 14.343 1.14085 17.282 0.0760415C17.7269 -0.0841834 18.2241 0.012868 18.5757 0.32874C18.9272 0.645527 19.0756 1.12986 18.9629 1.58948C18.3092 4.23365 16.2877 12.417 15.6706 14.9147C15.5635 15.3496 15.2366 15.6966 14.8099 15.8303C14.3824 15.9649 13.9163 15.866 13.5803 15.5702L10.4628 12.8318L8.02279 15.1711C7.67213 15.5071 7.16307 15.616 6.70529 15.454C6.24842 15.291 5.92249 14.8845 5.86298 14.4029L5.36856 10.3936ZM14.2148 13.935L17.1977 1.85957L2.27577 7.26327L6.21456 8.9644C6.63206 9.14477 6.9232 9.53297 6.97905 9.98434L7.40937 13.4763L9.21213 11.7487L9.05281 11.6113C8.77722 11.376 8.61518 11.0354 8.60511 10.6738C8.59412 10.3121 8.73786 9.96329 8.9988 9.71242C9.97754 8.77396 12.5887 6.27171 12.5887 6.27171C12.9174 5.95675 13.4393 5.96774 13.7543 6.29643C14.0683 6.6242 14.0573 7.14608 13.7295 7.46103L10.4317 10.6225L10.9746 11.0876L14.2148 13.935Z" fill="white"/>
</svg>
