<svg width="18" height="14" viewBox="0 0 18 14" fill="none" xmlns="http://www.w3.org/2000/svg">
<path d="M17.8883 6.57699L13.2944 1.98311C13.1516 1.84026 12.8988 1.84026 12.756 1.98311L11.76 2.97907C11.6112 3.12782 11.6112 3.36895 11.76 3.51771L15.0888 6.84612L11.7602 10.1751C11.6114 10.3239 11.6114 10.565 11.7602 10.7137L12.7561 11.7097C12.8276 11.7811 12.9245 11.8215 13.0255 11.8215C13.1262 11.8215 13.2234 11.7811 13.2948 11.7097L17.8883 7.11601C18.037 6.96707 18.037 6.72575 17.8883 6.57699Z" fill="#131313"/>
<path d="M6.23966 10.1753L2.91143 6.84669L6.24023 3.51828C6.31165 3.44685 6.35184 3.3501 6.35184 3.24896C6.35184 3.14801 6.31184 3.05106 6.24023 2.97964L5.24427 1.98368C5.17285 1.91226 5.0759 1.87207 4.97495 1.87207C4.87401 1.87207 4.77706 1.91226 4.70563 1.98368L0.111566 6.57718C-0.0371887 6.72593 -0.0371887 6.96707 0.111566 7.11601L4.70544 11.7097C4.77687 11.7811 4.87382 11.8215 4.97476 11.8215C5.07571 11.8215 5.17266 11.7811 5.24408 11.7097L6.24004 10.7137C6.38879 10.5652 6.38879 10.324 6.23966 10.1753Z" fill="#131313"/>
<path d="M11.6122 0.437759C11.5639 0.349001 11.4823 0.283099 11.3856 0.254529L10.5782 0.016255C10.3767 -0.0435517 10.1645 0.0720619 10.1051 0.273767L6.35688 12.9671C6.32831 13.064 6.33936 13.1682 6.38754 13.2568C6.43573 13.3457 6.51744 13.4114 6.6142 13.4402L7.42159 13.6785C7.45759 13.6891 7.49397 13.6943 7.52959 13.6943C7.69396 13.6943 7.84576 13.5868 7.89471 13.4209L11.6429 0.727459C11.6715 0.630511 11.6606 0.526326 11.6122 0.437759Z" fill="#131313"/>
</svg>
