<svg width="15" height="10" viewBox="0 0 15 10" fill="none" xmlns="http://www.w3.org/2000/svg">
<path d="M13.8766 0H1.12339C0.50294 0 0 0.502939 0 1.12339V8.70422C0 9.32464 0.50294 9.82761 1.12339 9.82761H13.8766C14.497 9.82761 15 9.32467 15 8.70422V1.12339C15 0.502939 14.4971 0 13.8766 0Z" fill="#41479B"/>
<path d="M14.9844 0.937705C14.8959 0.405703 14.4338 0 13.8766 0H13.5843L8.79311 3.13907V2.92808e-05H6.20689V3.1391L1.41568 2.92808e-05H1.12339C0.56625 2.92808e-05 0.104092 0.405703 0.0155566 0.937734L4.11062 3.62074H0V6.20695H4.11062L0.0155566 8.8899C0.104092 9.4219 0.56625 9.82761 1.12339 9.82761H1.41568L6.20689 6.68853V9.82761H8.79311V6.68853L13.5843 9.82761H13.8766C14.4338 9.82761 14.8959 9.42193 14.9844 8.8899L10.8894 6.20689H15V3.62068H10.8894L14.9844 0.937705Z" fill="#F5F5F5"/>
<path d="M8.27587 0H6.72413V4.13792H0V5.68966H6.72413V9.82758H8.27587V5.68966H15V4.13792H8.27587V0Z" fill="#FF4B55"/>
<path d="M0.726143 9.75481L6.19244 6.20654H5.2424L0.27002 9.43424C0.391689 9.57624 0.548047 9.68751 0.726143 9.75481Z" fill="#FF4B55"/>
<path d="M10.1483 6.20654H9.19824L14.4927 9.64321C14.6408 9.54592 14.7644 9.41449 14.8526 9.26016L10.1483 6.20654Z" fill="#FF4B55"/>
<path d="M0.118652 0.621084L4.73965 3.6207H5.68969L0.453398 0.22168C0.312803 0.326328 0.197754 0.463144 0.118652 0.621084Z" fill="#FF4B55"/>
<path d="M9.74301 3.62065L14.7245 0.387012C14.6015 0.245479 14.4439 0.134854 14.2646 0.0688477L8.79297 3.62065H9.74301Z" fill="#FF4B55"/>
</svg>
