<svg width="15" height="10" viewBox="0 0 15 10" fill="none" xmlns="http://www.w3.org/2000/svg">
<path d="M13.8766 0H1.12339C0.502939 0 0 0.502968 0 1.12339V3.27585H15V1.12339C15 0.502968 14.497 0 13.8766 0Z" fill="#73AF00"/>
<path d="M0 8.70422C0 9.32464 0.502939 9.82761 1.12339 9.82761H13.8766C14.497 9.82761 15 9.32467 15 8.70422V6.55176H0V8.70422Z" fill="#FF4B55"/>
<path d="M15 3.27588H0V6.55156H15V3.27588Z" fill="#F5F5F5"/>
<path d="M0.040664 3.10272H0.0429491C0.0654198 3.10272 0.0836424 3.08453 0.0836424 3.06206V2.97393C0.0836424 2.95146 0.101836 2.93327 0.124336 2.93327H0.295048C0.317519 2.93327 0.335742 2.95146 0.335742 2.97393V3.06206C0.335742 3.08453 0.353935 3.10272 0.376435 3.10272H0.713407C0.735878 3.10272 0.754071 3.08453 0.754071 3.06206V2.88807C0.754071 2.8656 0.735878 2.8474 0.713407 2.8474H0.543778C0.521308 2.8474 0.503114 2.8656 0.503114 2.88807V2.89255C0.503114 2.91502 0.521308 2.93321 0.543778 2.93321H0.629764C0.652235 2.93321 0.670458 2.95141 0.670458 2.97388V2.9783C0.670458 3.00077 0.652264 3.01896 0.629764 3.01896H0.460077C0.437607 3.01896 0.419384 3.00077 0.419384 2.9783V2.88804C0.419384 2.86557 0.401161 2.84737 0.378691 2.84737H0.040664C0.0181933 2.84737 0 2.86557 0 2.88804V3.06203C0 3.08447 0.0181933 3.10272 0.040664 3.10272ZM0.209091 3.10272H0.211406C0.233877 3.10272 0.25207 3.08453 0.25207 3.06206V3.05975C0.25207 3.03727 0.233877 3.01908 0.211406 3.01908H0.209091C0.186621 3.01908 0.168398 3.0373 0.168398 3.05975V3.06206C0.168398 3.08447 0.186621 3.10272 0.209091 3.10272ZM0.040664 2.76156H1.04915C1.07162 2.76156 1.08984 2.74337 1.08984 2.7209V2.71645C1.08984 2.69397 1.07165 2.67578 1.04915 2.67578H0.040664C0.0181933 2.67578 0 2.69397 0 2.71645V2.7209C0 2.74337 0.0181933 2.76156 0.040664 2.76156ZM1.04915 3.10272H0.87952C0.857049 3.10272 0.838827 3.08453 0.838827 3.06206V2.88807C0.838827 2.8656 0.85702 2.8474 0.87952 2.8474H1.13285C1.15532 2.8474 1.17354 2.82918 1.17354 2.80674V2.71647C1.17354 2.694 1.19174 2.67581 1.21421 2.67581H1.21646C1.23893 2.67581 1.25716 2.694 1.25716 2.71647V2.97839C1.25716 3.00086 1.27535 3.01905 1.29782 3.01905H1.30013C1.3226 3.01905 1.3408 3.00086 1.3408 2.97839V2.71647C1.3408 2.694 1.35899 2.67581 1.38146 2.67581H1.38372C1.40619 2.67581 1.42441 2.694 1.42441 2.71647V2.97839C1.42441 3.00086 1.4426 3.01905 1.46508 3.01905H1.46844C1.49092 3.01905 1.50914 3.00086 1.50914 2.97839V2.71647C1.50914 2.694 1.52733 2.67581 1.5498 2.67581H1.55103C1.5735 2.67581 1.5917 2.694 1.5917 2.71647V3.06209C1.5917 3.08456 1.5735 3.10275 1.55103 3.10275H1.21427C1.19179 3.10275 1.1736 3.08456 1.1736 3.06209V2.97396C1.1736 2.95149 1.15541 2.9333 1.13291 2.9333H0.963279C0.940809 2.9333 0.922586 2.95149 0.922586 2.97396V2.97839C0.922586 3.00086 0.94078 3.01905 0.963279 3.01905H1.04921C1.07168 3.01905 1.0899 3.03727 1.0899 3.05972V3.06203C1.08987 3.08447 1.07162 3.10272 1.04915 3.10272Z" fill="#F5F5F5"/>
<path d="M1.71742 3.10272H1.72079C1.74326 3.10272 1.76148 3.08453 1.76148 3.06206V2.97393C1.76148 2.95146 1.77968 2.93327 1.80215 2.93327H1.97072C1.99319 2.93327 2.01142 2.95146 2.01142 2.97393V3.06206C2.01142 3.08453 2.02961 3.10272 2.05208 3.10272H2.38905C2.41152 3.10272 2.42972 3.08453 2.42972 3.06206V2.88807C2.42972 2.8656 2.41152 2.8474 2.38905 2.8474H2.21942C2.19695 2.8474 2.17873 2.8656 2.17873 2.88807V2.89255C2.17873 2.91502 2.19692 2.93321 2.21942 2.93321H2.30541C2.32788 2.93321 2.34607 2.95141 2.34607 2.97388V2.9783C2.34607 3.00077 2.32788 3.01896 2.30541 3.01896H2.13572C2.11325 3.01896 2.09506 3.00077 2.09506 2.9783V2.88804C2.09506 2.86557 2.07686 2.84737 2.05439 2.84737H1.71742C1.69495 2.84737 1.67676 2.86557 1.67676 2.88804V3.06203C1.67676 3.08447 1.69498 3.10272 1.71742 3.10272ZM1.88479 3.10272H1.88708C1.90955 3.10272 1.92774 3.08453 1.92774 3.06206V3.05975C1.92774 3.03727 1.90955 3.01908 1.88708 3.01908H1.88479C1.86232 3.01908 1.84413 3.0373 1.84413 3.05975V3.06206C1.84413 3.08447 1.86232 3.10272 1.88479 3.10272ZM1.71742 2.76156H2.72485C2.74732 2.76156 2.76554 2.74337 2.76554 2.7209V2.71645C2.76554 2.69397 2.74735 2.67578 2.72485 2.67578H1.71742C1.69495 2.67578 1.67676 2.69397 1.67676 2.71645V2.7209C1.67676 2.74337 1.69498 2.76156 1.71742 2.76156ZM2.72488 3.10272H2.55417C2.5317 3.10272 2.51347 3.08453 2.51347 3.06206V2.88807C2.51347 2.8656 2.53167 2.8474 2.55417 2.8474H2.80753C2.83 2.8474 2.84819 2.82918 2.84819 2.80674V2.71647C2.84819 2.694 2.86638 2.67581 2.88888 2.67581H2.89225C2.91472 2.67581 2.93292 2.694 2.93292 2.71647V2.97839C2.93292 3.00086 2.95111 3.01905 2.97361 3.01905H2.97698C2.99945 3.01905 3.01767 3.00086 3.01767 2.97839V2.71647C3.01767 2.694 3.03587 2.67581 3.05837 2.67581H3.0596C3.08207 2.67581 3.10026 2.694 3.10026 2.71647V2.97839C3.10026 3.00086 3.11845 3.01905 3.14095 3.01905H3.14432C3.16679 3.01905 3.18502 3.00086 3.18502 2.97839V2.71647C3.18502 2.694 3.20321 2.67581 3.22568 2.67581H3.22797C3.25044 2.67581 3.26863 2.694 3.26863 2.71647V3.06209C3.26863 3.08456 3.25044 3.10275 3.22797 3.10275H2.88888C2.86641 3.10275 2.84819 3.08456 2.84819 3.06209V2.97396C2.84819 2.95149 2.83 2.9333 2.80753 2.9333H2.63895C2.61648 2.9333 2.59829 2.95149 2.59829 2.97396V2.97839C2.59829 3.00086 2.61648 3.01905 2.63895 3.01905H2.72494C2.74741 3.01905 2.76563 3.03727 2.76563 3.05972V3.06203C2.76554 3.08447 2.74735 3.10272 2.72488 3.10272Z" fill="#F5F5F5"/>
<path d="M3.3932 3.10272H3.39546C3.41793 3.10272 3.43612 3.08453 3.43612 3.06206V2.97393C3.43612 2.95146 3.45432 2.93327 3.47679 2.93327H3.64647C3.66894 2.93327 3.68714 2.95146 3.68714 2.97393V3.06206C3.68714 3.08453 3.70536 3.10272 3.72783 3.10272H4.06586C4.08833 3.10272 4.10655 3.08453 4.10655 3.06206V2.88807C4.10655 2.8656 4.08836 2.8474 4.06586 2.8474H3.89623C3.87376 2.8474 3.85554 2.8656 3.85554 2.88807V2.89255C3.85554 2.91502 3.87373 2.93321 3.89623 2.93321H3.98222C4.00469 2.93321 4.02291 2.95141 4.02291 2.97388V2.9783C4.02291 3.00077 4.00472 3.01896 3.98222 3.01896H3.8115C3.78903 3.01896 3.77084 3.00077 3.77084 2.9783V2.88804C3.77084 2.86557 3.75265 2.84737 3.73018 2.84737H3.3932C3.37073 2.84737 3.35254 2.86557 3.35254 2.88804V3.06203C3.35248 3.08447 3.37073 3.10272 3.3932 3.10272ZM3.56055 3.10272H3.56283C3.5853 3.10272 3.6035 3.08453 3.6035 3.06206V3.05975C3.6035 3.03727 3.5853 3.01908 3.56283 3.01908H3.56055C3.53808 3.01908 3.51988 3.0373 3.51988 3.05975V3.06206C3.51985 3.08447 3.53808 3.10272 3.56055 3.10272ZM3.3932 2.76156H4.40172C4.42419 2.76156 4.44241 2.74337 4.44241 2.7209V2.71645C4.44241 2.69397 4.42422 2.67578 4.40172 2.67578H3.3932C3.37073 2.67578 3.35254 2.69397 3.35254 2.71645V2.7209C3.35248 2.74337 3.37073 2.76156 3.3932 2.76156ZM4.40172 3.10272H4.231C4.20853 3.10272 4.19031 3.08453 4.19031 3.06206V2.88807C4.19031 2.8656 4.2085 2.8474 4.231 2.8474H4.4843C4.50678 2.8474 4.52497 2.82918 4.52497 2.80674V2.71647C4.52497 2.694 4.54319 2.67581 4.56566 2.67581H4.56798C4.59045 2.67581 4.60864 2.694 4.60864 2.71647V2.97839C4.60864 3.00086 4.62686 3.01905 4.64933 3.01905H4.6527C4.67517 3.01905 4.6934 3.00086 4.6934 2.97839V2.71647C4.6934 2.694 4.71159 2.67581 4.73406 2.67581H4.73746C4.75993 2.67581 4.77812 2.694 4.77812 2.71647V2.97839C4.77812 3.00086 4.79634 3.01905 4.81879 3.01905H4.82002C4.84249 3.01905 4.86071 3.00086 4.86071 2.97839V2.71647C4.86071 2.694 4.8789 2.67581 4.90137 2.67581H4.90366C4.92613 2.67581 4.94432 2.694 4.94432 2.71647V3.06209C4.94432 3.08456 4.9261 3.10275 4.90366 3.10275H4.56557C4.5431 3.10275 4.52488 3.08456 4.52488 3.06209V2.97396C4.52488 2.95149 4.50669 2.9333 4.48422 2.9333H4.31459C4.29212 2.9333 4.27389 2.95149 4.27389 2.97396V2.97839C4.27389 3.00086 4.29209 3.01905 4.31459 3.01905H4.40169C4.42416 3.01905 4.44238 3.03727 4.44238 3.05972V3.06203C4.44241 3.08447 4.42419 3.10272 4.40172 3.10272Z" fill="#F5F5F5"/>
<path d="M5.06853 3.10272H5.07078C5.09325 3.10272 5.11145 3.08453 5.11145 3.06206V2.97393C5.11145 2.95146 5.12967 2.93327 5.15211 2.93327H5.32174C5.34421 2.93327 5.36243 2.95146 5.36243 2.97393V3.06206C5.36243 3.08453 5.38062 3.10272 5.40312 3.10272H5.74121C5.76368 3.10272 5.78187 3.08453 5.78187 3.06206V2.88807C5.78187 2.8656 5.76368 2.8474 5.74121 2.8474H5.5705C5.54803 2.8474 5.5298 2.8656 5.5298 2.88807V2.89255C5.5298 2.91502 5.54803 2.93321 5.5705 2.93321H5.65648C5.67895 2.93321 5.69715 2.95141 5.69715 2.97388V2.9783C5.69715 3.00077 5.67895 3.01896 5.65648 3.01896H5.48685C5.46438 3.01896 5.44619 3.00077 5.44619 2.9783V2.88804C5.44619 2.86557 5.42797 2.84737 5.4055 2.84737H5.06853C5.04605 2.84737 5.02783 2.86557 5.02783 2.88804V3.06203C5.02786 3.08447 5.04608 3.10272 5.06853 3.10272ZM5.2359 3.10272H5.23815C5.26062 3.10272 5.27882 3.08453 5.27882 3.06206V3.05975C5.27882 3.03727 5.26062 3.01908 5.23815 3.01908H5.2359C5.21343 3.01908 5.1952 3.0373 5.1952 3.05975V3.06206C5.1952 3.08447 5.21343 3.10272 5.2359 3.10272ZM5.06853 2.76156H6.07595C6.09843 2.76156 6.11662 2.74337 6.11662 2.7209V2.71645C6.11662 2.69397 6.09843 2.67578 6.07595 2.67578H5.06853C5.04605 2.67578 5.02783 2.69397 5.02783 2.71645V2.7209C5.02786 2.74337 5.04608 2.76156 5.06853 2.76156ZM6.07598 3.10272H5.90527C5.8828 3.10272 5.86461 3.08453 5.86461 3.06206V2.88807C5.86461 2.8656 5.8828 2.8474 5.90527 2.8474H6.16077C6.18324 2.8474 6.20146 2.82918 6.20146 2.80674V2.71647C6.20146 2.694 6.21966 2.67581 6.24213 2.67581H6.24441C6.26688 2.67581 6.28508 2.694 6.28508 2.71647V2.97839C6.28508 3.00086 6.30327 3.01905 6.32574 3.01905H6.32697C6.34944 3.01905 6.36766 3.00086 6.36766 2.97839V2.71647C6.36766 2.694 6.38586 2.67581 6.40833 2.67581H6.41173C6.4342 2.67581 6.45239 2.694 6.45239 2.71647V2.97839C6.45239 3.00086 6.47058 3.01905 6.49305 3.01905H6.49537C6.51784 3.01905 6.53603 3.00086 6.53603 2.97839V2.71647C6.53603 2.694 6.55425 2.67581 6.57673 2.67581H6.57898C6.60145 2.67581 6.61965 2.694 6.61965 2.71647V3.06209C6.61965 3.08456 6.60145 3.10275 6.57898 3.10275H6.24204C6.21957 3.10275 6.20137 3.08456 6.20137 3.06209V2.97396C6.20137 2.95149 6.18318 2.9333 6.16068 2.9333H5.98997C5.9675 2.9333 5.94928 2.95149 5.94928 2.97396V2.97839C5.94928 3.00086 5.9675 3.01905 5.98997 3.01905H6.07595C6.09843 3.01905 6.11662 3.03727 6.11662 3.05972V3.06203C6.11665 3.08447 6.09846 3.10272 6.07598 3.10272Z" fill="#F5F5F5"/>
<path d="M6.74388 3.10272H6.74619C6.76866 3.10272 6.78686 3.08453 6.78686 3.06206V2.97393C6.78686 2.95146 6.80505 2.93327 6.82752 2.93327H6.99715C7.01962 2.93327 7.03781 2.95146 7.03781 2.97393V3.06206C7.03781 3.08453 7.05603 3.10272 7.0785 3.10272H7.41659C7.43906 3.10272 7.45725 3.08453 7.45725 3.06206V2.88807C7.45725 2.8656 7.43906 2.8474 7.41659 2.8474H7.24588C7.22341 2.8474 7.20518 2.8656 7.20518 2.88807V2.89255C7.20518 2.91502 7.22341 2.93321 7.24588 2.93321H7.33289C7.35536 2.93321 7.37355 2.95141 7.37355 2.97388V2.9783C7.37355 3.00077 7.35533 3.01896 7.33289 3.01896H7.16326C7.14079 3.01896 7.1226 3.00077 7.1226 2.9783V2.88804C7.1226 2.86557 7.1044 2.84737 7.0819 2.84737H6.74382C6.72135 2.84737 6.70312 2.86557 6.70312 2.88804V3.06203C6.70321 3.08447 6.72141 3.10272 6.74388 3.10272ZM6.91233 3.10272H6.91356C6.93603 3.10272 6.95426 3.08453 6.95426 3.06206V3.05975C6.95426 3.03727 6.93603 3.01908 6.91356 3.01908H6.91233C6.88986 3.01908 6.87167 3.0373 6.87167 3.05975V3.06206C6.87164 3.08447 6.88986 3.10272 6.91233 3.10272ZM6.74388 2.76156H7.75242C7.77489 2.76156 7.79308 2.74337 7.79308 2.7209V2.71645C7.79308 2.69397 7.77486 2.67578 7.75242 2.67578H6.74388C6.72141 2.67578 6.70318 2.69397 6.70318 2.71645V2.7209C6.70321 2.74337 6.72141 2.76156 6.74388 2.76156ZM7.75245 3.10272H7.58174C7.55927 3.10272 7.54107 3.08453 7.54107 3.06206V2.88807C7.54107 2.8656 7.55927 2.8474 7.58174 2.8474H7.83615C7.85862 2.8474 7.87681 2.82918 7.87681 2.80674V2.71647C7.87681 2.694 7.89504 2.67581 7.91751 2.67581H7.91976C7.94223 2.67581 7.96043 2.694 7.96043 2.71647V2.97839C7.96043 3.00086 7.97865 3.01905 8.00109 3.01905H8.0034C8.02587 3.01905 8.04407 3.00086 8.04407 2.97839V2.71647C8.04407 2.694 8.06229 2.67581 8.08476 2.67581H8.08702C8.10949 2.67581 8.12768 2.694 8.12768 2.71647V2.97839C8.12768 3.00086 8.1459 3.01905 8.16834 3.01905H8.1706C8.19307 3.01905 8.21126 3.00086 8.21126 2.97839V2.71647C8.21126 2.694 8.22949 2.67581 8.25196 2.67581H8.25427C8.27674 2.67581 8.29497 2.694 8.29497 2.71647V3.06209C8.29497 3.08456 8.27674 3.10275 8.25427 3.10275H7.9173C7.89483 3.10275 7.87661 3.08456 7.87661 3.06209V2.97396C7.87661 2.95149 7.85841 2.9333 7.83594 2.9333H7.66523C7.64276 2.9333 7.62454 2.95149 7.62454 2.97396V2.97839C7.62454 3.00086 7.64276 3.01905 7.66523 3.01905H7.75224C7.77471 3.01905 7.79291 3.03727 7.79291 3.05972V3.06203C7.79311 3.08447 7.77492 3.10272 7.75245 3.10272Z" fill="#F5F5F5"/>
<path d="M8.4196 3.10272H8.42191C8.44438 3.10272 8.46261 3.08453 8.46261 3.06206V2.97393C8.46261 2.95146 8.4808 2.93327 8.5033 2.93327H8.67293C8.6954 2.93327 8.71362 2.95146 8.71362 2.97393V3.06206C8.71362 3.08453 8.73184 3.10272 8.75429 3.10272H9.09237C9.11484 3.10272 9.13306 3.08453 9.13306 3.06206V2.88807C9.13306 2.8656 9.11487 2.8474 9.09237 2.8474H8.92268C8.90021 2.8474 8.88202 2.8656 8.88202 2.88807V2.89255C8.88202 2.91502 8.90021 2.93321 8.92268 2.93321H9.00765C9.03012 2.93321 9.04834 2.95141 9.04834 2.97388V2.9783C9.04834 3.00077 9.03012 3.01896 9.00765 3.01896H8.83907C8.8166 3.01896 8.79838 3.00077 8.79838 2.9783V2.88804C8.79838 2.86557 8.78018 2.84737 8.75771 2.84737H8.41963C8.39716 2.84737 8.37893 2.86557 8.37893 2.88804V3.06203C8.37891 3.08447 8.39713 3.10272 8.4196 3.10272ZM8.58803 3.10272H8.58926C8.61173 3.10272 8.62995 3.08453 8.62995 3.06206V3.05975C8.62995 3.03727 8.61173 3.01908 8.58926 3.01908H8.58803C8.56556 3.01908 8.54736 3.0373 8.54736 3.05975V3.06206C8.54736 3.08447 8.56556 3.10272 8.58803 3.10272ZM8.4196 2.76156H9.42814C9.45061 2.76156 9.46881 2.74337 9.46881 2.7209V2.71645C9.46881 2.69397 9.45058 2.67578 9.42814 2.67578H8.4196C8.39713 2.67578 8.37891 2.69397 8.37891 2.71645V2.7209C8.37891 2.74337 8.39713 2.76156 8.4196 2.76156ZM9.42814 3.10272H9.25851C9.23604 3.10272 9.21785 3.08453 9.21785 3.06206V2.88807C9.21785 2.8656 9.23604 2.8474 9.25851 2.8474H9.51181C9.53428 2.8474 9.55248 2.82918 9.55248 2.80674V2.71647C9.55248 2.694 9.5707 2.67581 9.59317 2.67581H9.59549C9.61796 2.67581 9.63615 2.694 9.63615 2.71647V2.97839C9.63615 3.00086 9.65434 3.01905 9.67684 3.01905H9.6791C9.70157 3.01905 9.71979 3.00086 9.71979 2.97839V2.71647C9.71979 2.694 9.73799 2.67581 9.76049 2.67581H9.7628C9.78527 2.67581 9.80349 2.694 9.80349 2.71647V2.97839C9.80349 3.00086 9.82169 3.01905 9.84416 3.01905H9.84644C9.86891 3.01905 9.88711 3.00086 9.88711 2.97839V2.71647C9.88711 2.694 9.90533 2.67581 9.9278 2.67581H9.93011C9.95258 2.67581 9.97081 2.694 9.97081 2.71647V3.06209C9.97081 3.08456 9.95258 3.10275 9.93011 3.10275H9.59305C9.57058 3.10275 9.55236 3.08456 9.55236 3.06209V2.97396C9.55236 2.95149 9.53417 2.9333 9.5117 2.9333H9.34101C9.31854 2.9333 9.30032 2.95149 9.30032 2.97396V2.97839C9.30032 3.00086 9.31854 3.01905 9.34101 3.01905H9.42803C9.4505 3.01905 9.46869 3.03727 9.46869 3.05972V3.06203C9.46884 3.08447 9.45058 3.10272 9.42814 3.10272Z" fill="#F5F5F5"/>
<path d="M10.0954 3.10272H10.0977C10.1202 3.10272 10.1384 3.08453 10.1384 3.06206V2.97393C10.1384 2.95146 10.1566 2.93327 10.1791 2.93327H10.3497C10.3722 2.93327 10.3904 2.95146 10.3904 2.97393V3.06206C10.3904 3.08453 10.4086 3.10272 10.4311 3.10272H10.7682C10.7906 3.10272 10.8088 3.08453 10.8088 3.06206V2.88807C10.8088 2.8656 10.7906 2.8474 10.7682 2.8474H10.5985C10.576 2.8474 10.5578 2.8656 10.5578 2.88807V2.89255C10.5578 2.91502 10.576 2.93321 10.5985 2.93321H10.6856C10.708 2.93321 10.7262 2.95141 10.7262 2.97388V2.9783C10.7262 3.00077 10.708 3.01896 10.6856 3.01896H10.5137C10.4913 3.01896 10.4731 3.00077 10.4731 2.9783V2.88804C10.4731 2.86557 10.4549 2.84737 10.4324 2.84737H10.0954C10.0729 2.84737 10.0547 2.86557 10.0547 2.88804V3.06203C10.0547 3.08447 10.0729 3.10272 10.0954 3.10272ZM10.2628 3.10272H10.2662C10.2886 3.10272 10.3068 3.08453 10.3068 3.06206V3.05975C10.3068 3.03727 10.2886 3.01908 10.2662 3.01908H10.2628C10.2403 3.01908 10.2221 3.0373 10.2221 3.05975V3.06206C10.2221 3.08447 10.2403 3.10272 10.2628 3.10272ZM10.0954 2.76156H11.1039C11.1264 2.76156 11.1446 2.74337 11.1446 2.7209V2.71645C11.1446 2.69397 11.1264 2.67578 11.1039 2.67578H10.0954C10.0729 2.67578 10.0547 2.69397 10.0547 2.71645V2.7209C10.0547 2.74337 10.0729 2.76156 10.0954 2.76156ZM11.104 3.10272H10.9343C10.9119 3.10272 10.8936 3.08453 10.8936 3.06206V2.88807C10.8936 2.8656 10.9118 2.8474 10.9343 2.8474H11.1876C11.2101 2.8474 11.2283 2.82918 11.2283 2.80674V2.71647C11.2283 2.694 11.2465 2.67581 11.269 2.67581H11.2713C11.2938 2.67581 11.312 2.694 11.312 2.71647V2.97839C11.312 3.00086 11.3302 3.01905 11.3527 3.01905H11.3549C11.3774 3.01905 11.3956 3.00086 11.3956 2.97839V2.71647C11.3956 2.694 11.4139 2.67581 11.4363 2.67581H11.4386C11.4611 2.67581 11.4793 2.694 11.4793 2.71647V2.97839C11.4793 3.00086 11.4975 3.01905 11.52 3.01905H11.5234C11.5459 3.01905 11.5641 3.00086 11.5641 2.97839V2.71647C11.5641 2.694 11.5823 2.67581 11.6048 2.67581H11.6059C11.6284 2.67581 11.6466 2.694 11.6466 2.71647V3.06209C11.6466 3.08456 11.6284 3.10275 11.6059 3.10275H11.269C11.2465 3.10275 11.2283 3.08456 11.2283 3.06209V2.97396C11.2283 2.95149 11.2101 2.9333 11.1876 2.9333H11.019C10.9965 2.9333 10.9783 2.95149 10.9783 2.97396V2.97839C10.9783 3.00086 10.9965 3.01905 11.019 3.01905H11.1039C11.1264 3.01905 11.1446 3.03727 11.1446 3.05972V3.06203C11.1446 3.08447 11.1264 3.10272 11.104 3.10272Z" fill="#F5F5F5"/>
<path d="M11.7717 3.10272H11.7729C11.7954 3.10272 11.8136 3.08453 11.8136 3.06206V2.97393C11.8136 2.95146 11.8318 2.93327 11.8543 2.93327H12.024C12.0464 2.93327 12.0646 2.95146 12.0646 2.97393V3.06206C12.0646 3.08453 12.0828 3.10272 12.1053 3.10272H12.4433C12.4658 3.10272 12.484 3.08453 12.484 3.06206V2.88807C12.484 2.8656 12.4658 2.8474 12.4433 2.8474H12.2748C12.2524 2.8474 12.2341 2.8656 12.2341 2.88807V2.89255C12.2341 2.91502 12.2524 2.93321 12.2748 2.93321H12.3608C12.3832 2.93321 12.4014 2.95141 12.4014 2.97388V2.9783C12.4014 3.00077 12.3833 3.01896 12.3608 3.01896H12.1901C12.1676 3.01896 12.1494 3.00077 12.1494 2.9783V2.88804C12.1494 2.86557 12.1312 2.84737 12.1087 2.84737H11.7717C11.7492 2.84737 11.731 2.86557 11.731 2.88804V3.06203C11.7309 3.08447 11.7492 3.10272 11.7717 3.10272ZM11.939 3.10272H11.9413C11.9638 3.10272 11.982 3.08453 11.982 3.06206V3.05975C11.982 3.03727 11.9638 3.01908 11.9413 3.01908H11.939C11.9165 3.01908 11.8983 3.0373 11.8983 3.05975V3.06206C11.8983 3.08447 11.9165 3.10272 11.939 3.10272ZM11.7717 2.76156H12.7813C12.8037 2.76156 12.822 2.74337 12.822 2.7209V2.71645C12.822 2.69397 12.8038 2.67578 12.7813 2.67578H11.7717C11.7492 2.67578 11.731 2.69397 11.731 2.71645V2.7209C11.7309 2.74337 11.7492 2.76156 11.7717 2.76156ZM12.7812 3.10272H12.6094C12.587 3.10272 12.5687 3.08453 12.5687 3.06206V2.88807C12.5687 2.8656 12.587 2.8474 12.6094 2.8474H12.8628C12.8852 2.8474 12.9034 2.82918 12.9034 2.80674V2.71647C12.9034 2.694 12.9217 2.67581 12.9441 2.67581H12.9475C12.97 2.67581 12.9882 2.694 12.9882 2.71647V2.97839C12.9882 3.00086 13.0064 3.01905 13.0289 3.01905H13.0311C13.0536 3.01905 13.0718 3.00086 13.0718 2.97839V2.71647C13.0718 2.694 13.09 2.67581 13.1125 2.67581H13.1137C13.1362 2.67581 13.1544 2.694 13.1544 2.71647V2.97839C13.1544 3.00086 13.1726 3.01905 13.1951 3.01905H13.1985C13.2209 3.01905 13.2391 3.00086 13.2391 2.97839V2.71647C13.2391 2.694 13.2573 2.67581 13.2798 2.67581H13.2821C13.3046 2.67581 13.3228 2.694 13.3228 2.71647V3.06209C13.3228 3.08456 13.3046 3.10275 13.2821 3.10275H12.9441C12.9216 3.10275 12.9034 3.08456 12.9034 3.06209V2.97396C12.9034 2.95149 12.8852 2.9333 12.8627 2.9333H12.693C12.6706 2.9333 12.6523 2.95149 12.6523 2.97396V2.97839C12.6523 3.00086 12.6705 3.01905 12.693 3.01905H12.7812C12.8036 3.01905 12.8219 3.03727 12.8219 3.05972V3.06203C12.822 3.08447 12.8037 3.10272 12.7812 3.10272Z" fill="#F5F5F5"/>
<path d="M13.4474 3.10272H13.4497C13.4722 3.10272 13.4904 3.08453 13.4904 3.06206V2.97393C13.4904 2.95146 13.5086 2.93327 13.5311 2.93327H13.7008C13.7232 2.93327 13.7415 2.95146 13.7415 2.97393V3.06206C13.7415 3.08453 13.7596 3.10272 13.7821 3.10272H14.1202C14.1427 3.10272 14.1609 3.08453 14.1609 3.06206V2.88807C14.1609 2.8656 14.1427 2.8474 14.1202 2.8474H13.9517C13.9292 2.8474 13.911 2.8656 13.911 2.88807V2.89255C13.911 2.91502 13.9292 2.93321 13.9517 2.93321H14.0376C14.0601 2.93321 14.0783 2.95141 14.0783 2.97388V2.9783C14.0783 3.00077 14.0601 3.01896 14.0376 3.01896H13.8658C13.8433 3.01896 13.8251 3.00077 13.8251 2.9783V2.88804C13.8251 2.86557 13.8069 2.84737 13.7845 2.84737H13.4475C13.425 2.84737 13.4068 2.86557 13.4068 2.88804V3.06203C13.4068 3.08447 13.425 3.10272 13.4474 3.10272ZM13.6148 3.10272H13.6171C13.6396 3.10272 13.6578 3.08453 13.6578 3.06206V3.05975C13.6578 3.03727 13.6396 3.01908 13.6171 3.01908H13.6148C13.5923 3.01908 13.5741 3.0373 13.5741 3.05975V3.06206C13.5741 3.08447 13.5923 3.10272 13.6148 3.10272ZM13.4474 2.76156H14.4549C14.4774 2.76156 14.4956 2.74337 14.4956 2.7209V2.71645C14.4956 2.69397 14.4774 2.67578 14.4549 2.67578H13.4474C13.425 2.67578 13.4067 2.69397 13.4067 2.71645V2.7209C13.4068 2.74337 13.425 2.76156 13.4474 2.76156ZM14.4549 3.10272H14.2853C14.2628 3.10272 14.2446 3.08453 14.2446 3.06206V2.88807C14.2446 2.8656 14.2628 2.8474 14.2853 2.8474H14.5408C14.5632 2.8474 14.5815 2.82918 14.5815 2.80674V2.71647C14.5815 2.694 14.5996 2.67581 14.6221 2.67581H14.6222C14.6447 2.67581 14.6629 2.694 14.6629 2.71647V2.97839C14.6629 3.00086 14.6811 3.01905 14.7036 3.01905H14.708C14.7305 3.01905 14.7487 3.00086 14.7487 2.97839V2.71647C14.7487 2.694 14.7669 2.67581 14.7894 2.67581H14.7895C14.812 2.67581 14.8302 2.694 14.8302 2.71647V2.97839C14.8302 3.00086 14.8485 3.01905 14.8709 3.01905H14.8733C14.8957 3.01905 14.9139 3.00086 14.9139 2.97839V2.71647C14.9139 2.694 14.9322 2.67581 14.9546 2.67581H14.9591C14.9815 2.67581 14.9998 2.694 14.9998 2.71647V3.06209C14.9998 3.08456 14.9815 3.10275 14.9591 3.10275H14.6221C14.5996 3.10275 14.5814 3.08456 14.5814 3.06209V2.97396C14.5814 2.95149 14.5632 2.9333 14.5407 2.9333H14.3689C14.3465 2.9333 14.3283 2.95149 14.3283 2.97396V2.97839C14.3283 3.00086 14.3465 3.01905 14.3689 3.01905H14.4549C14.4773 3.01905 14.4956 3.03727 14.4956 3.05972V3.06203C14.4956 3.08447 14.4774 3.10272 14.4549 3.10272Z" fill="#F5F5F5"/>
<path d="M0.040664 3.36202H0.713407C0.735877 3.36202 0.754071 3.34383 0.754071 3.32136V3.23109C0.754071 3.20862 0.735877 3.19043 0.713407 3.19043H0.040664C0.0181933 3.19043 0 3.20865 0 3.23109V3.32136C0 3.34383 0.0181933 3.36202 0.040664 3.36202ZM0.879549 3.36202H1.55124C1.57371 3.36202 1.5919 3.34383 1.5919 3.32136V3.23109C1.5919 3.20862 1.57371 3.19043 1.55124 3.19043H0.879549C0.857078 3.19043 0.838856 3.20865 0.838856 3.23109V3.32136C0.838826 3.34383 0.857078 3.36202 0.879549 3.36202Z" fill="#F5F5F5"/>
<path d="M1.71742 3.36202H2.38911C2.41158 3.36202 2.42977 3.34383 2.42977 3.32136V3.23109C2.42977 3.20862 2.41158 3.19043 2.38911 3.19043H1.71742C1.69495 3.19043 1.67676 3.20865 1.67676 3.23109V3.32136C1.67676 3.34383 1.69498 3.36202 1.71742 3.36202ZM2.55417 3.36202H3.228C3.25047 3.36202 3.26866 3.34383 3.26866 3.32136V3.23109C3.26866 3.20862 3.25047 3.19043 3.228 3.19043H2.55417C2.5317 3.19043 2.51347 3.20865 2.51347 3.23109V3.32136C2.51347 3.34383 2.5317 3.36202 2.55417 3.36202Z" fill="#F5F5F5"/>
<path d="M3.3932 3.36202H4.06595C4.08842 3.36202 4.10664 3.34383 4.10664 3.32136V3.23109C4.10664 3.20862 4.08845 3.19043 4.06595 3.19043H3.3932C3.37073 3.19043 3.35254 3.20865 3.35254 3.23109V3.32136C3.35248 3.34383 3.37073 3.36202 3.3932 3.36202ZM4.23097 3.36202H4.90372C4.92619 3.36202 4.94438 3.34383 4.94438 3.32136V3.23109C4.94438 3.20862 4.92616 3.19043 4.90372 3.19043H4.23097C4.2085 3.19043 4.19028 3.20865 4.19028 3.23109V3.32136C4.19028 3.34383 4.20853 3.36202 4.23097 3.36202Z" fill="#F5F5F5"/>
<path d="M5.06853 3.36202H5.74127C5.76374 3.36202 5.78193 3.34383 5.78193 3.32136V3.23109C5.78193 3.20862 5.76374 3.19043 5.74127 3.19043H5.06853C5.04605 3.19043 5.02783 3.20865 5.02783 3.23109V3.32136C5.02786 3.34383 5.04608 3.36202 5.06853 3.36202ZM5.90527 3.36202H6.5791C6.60157 3.36202 6.61976 3.34383 6.61976 3.32136V3.23109C6.61976 3.20862 6.60157 3.19043 6.5791 3.19043H5.90527C5.8828 3.19043 5.86461 3.20865 5.86461 3.23109V3.32136C5.86458 3.34383 5.88277 3.36202 5.90527 3.36202Z" fill="#F5F5F5"/>
<path d="M6.74382 3.36202H7.41662C7.43909 3.36202 7.45728 3.34383 7.45728 3.32136V3.23109C7.45728 3.20862 7.43909 3.19043 7.41662 3.19043H6.74382C6.72135 3.19043 6.70312 3.20865 6.70312 3.23109V3.32136C6.70315 3.34383 6.72135 3.36202 6.74382 3.36202ZM7.58162 3.36202H8.25442C8.27689 3.36202 8.29511 3.34383 8.29511 3.32136V3.23109C8.29511 3.20862 8.27689 3.19043 8.25442 3.19043H7.58162C7.55915 3.19043 7.54096 3.20865 7.54096 3.23109V3.32136C7.54096 3.34383 7.55915 3.36202 7.58162 3.36202Z" fill="#F5F5F5"/>
<path d="M8.4196 3.36202H9.0924C9.11487 3.36202 9.13309 3.34383 9.13309 3.32136V3.23109C9.13309 3.20862 9.1149 3.19043 9.0924 3.19043H8.4196C8.39713 3.19043 8.37891 3.20865 8.37891 3.23109V3.32136C8.37891 3.34383 8.39713 3.36202 8.4196 3.36202ZM9.25851 3.36202H9.9302C9.95267 3.36202 9.9709 3.34383 9.9709 3.32136V3.23109C9.9709 3.20862 9.95267 3.19043 9.9302 3.19043H9.25851C9.23604 3.19043 9.21785 3.20865 9.21785 3.23109V3.32136C9.21782 3.34383 9.23604 3.36202 9.25851 3.36202Z" fill="#F5F5F5"/>
<path d="M10.0954 3.36202H10.7682C10.7907 3.36202 10.8088 3.34383 10.8088 3.32136V3.23109C10.8088 3.20862 10.7907 3.19043 10.7682 3.19043H10.0954C10.0729 3.19043 10.0547 3.20865 10.0547 3.23109V3.32136C10.0547 3.34383 10.0729 3.36202 10.0954 3.36202ZM10.9343 3.36202H11.6059C11.6284 3.36202 11.6466 3.34383 11.6466 3.32136V3.23109C11.6466 3.20862 11.6284 3.19043 11.6059 3.19043H10.9343C10.9118 3.19043 10.8936 3.20865 10.8936 3.23109V3.32136C10.8936 3.34383 10.9118 3.36202 10.9343 3.36202Z" fill="#F5F5F5"/>
<path d="M11.7717 3.36202H12.4433C12.4658 3.36202 12.484 3.34383 12.484 3.32136V3.23109C12.484 3.20862 12.4658 3.19043 12.4433 3.19043H11.7717C11.7492 3.19043 11.731 3.20865 11.731 3.23109V3.32136C11.7309 3.34383 11.7492 3.36202 11.7717 3.36202ZM12.6095 3.36202H13.2823C13.3047 3.36202 13.3229 3.34383 13.3229 3.32136V3.23109C13.3229 3.20862 13.3048 3.19043 13.2823 3.19043H12.6095C12.587 3.19043 12.5688 3.20865 12.5688 3.23109V3.32136C12.5687 3.34383 12.587 3.36202 12.6095 3.36202Z" fill="#F5F5F5"/>
<path d="M13.4474 3.36202H14.1202C14.1427 3.36202 14.1609 3.34383 14.1609 3.32136V3.23109C14.1609 3.20862 14.1427 3.19043 14.1202 3.19043H13.4474C13.425 3.19043 13.4067 3.20865 13.4067 3.23109V3.32136C13.4068 3.34383 13.425 3.36202 13.4474 3.36202ZM14.2853 3.36202H14.9591C14.9816 3.36202 14.9998 3.34383 14.9998 3.32136V3.23109C14.9998 3.20862 14.9816 3.19043 14.9591 3.19043H14.2853C14.2628 3.19043 14.2446 3.20865 14.2446 3.23109V3.32136C14.2446 3.34383 14.2628 3.36202 14.2853 3.36202Z" fill="#F5F5F5"/>
<path d="M14.9593 6.7251H14.9571C14.9346 6.7251 14.9164 6.74329 14.9164 6.76576V6.85389C14.9164 6.87636 14.8982 6.89458 14.8757 6.89458H14.705C14.6825 6.89458 14.6643 6.87636 14.6643 6.85389V6.76576C14.6643 6.74329 14.6461 6.7251 14.6236 6.7251H14.2866C14.2642 6.7251 14.246 6.74329 14.246 6.76576V6.93976C14.246 6.96223 14.2642 6.98045 14.2866 6.98045H14.4563C14.4787 6.98045 14.4969 6.96223 14.4969 6.93976V6.9353C14.4969 6.91283 14.4787 6.89464 14.4563 6.89464H14.3703C14.3478 6.89464 14.3296 6.87642 14.3296 6.85395V6.84952C14.3296 6.82705 14.3478 6.80886 14.3703 6.80886H14.54C14.5624 6.80886 14.5806 6.82705 14.5806 6.84952V6.93978C14.5806 6.96226 14.5989 6.98048 14.6213 6.98048H14.9594C14.9818 6.98048 15 6.96226 15 6.93978V6.76579C15 6.74332 14.9818 6.7251 14.9593 6.7251ZM14.7909 6.7251H14.7886C14.7661 6.7251 14.7479 6.74329 14.7479 6.76576V6.76808C14.7479 6.79055 14.7661 6.80877 14.7886 6.80877H14.7909C14.8134 6.80877 14.8316 6.79055 14.8316 6.76808V6.76576C14.8316 6.74332 14.8134 6.7251 14.7909 6.7251ZM14.9593 7.06623H13.9508C13.9284 7.06623 13.9101 7.08442 13.9101 7.10689V7.11138C13.9101 7.13385 13.9284 7.15204 13.9508 7.15204H14.9593C14.9818 7.15204 15 7.13382 15 7.11138V7.10689C15 7.08445 14.9818 7.06623 14.9593 7.06623ZM13.9509 6.7251H14.1205C14.143 6.7251 14.1612 6.74329 14.1612 6.76576V6.93976C14.1612 6.96223 14.143 6.98045 14.1205 6.98045H13.8672C13.8447 6.98045 13.8265 6.99864 13.8265 7.02111V7.11138C13.8265 7.13385 13.8083 7.15204 13.7858 7.15204H13.7836C13.7611 7.15204 13.7429 7.13382 13.7429 7.11138V6.84946C13.7429 6.82699 13.7247 6.8088 13.7022 6.8088H13.6999C13.6774 6.8088 13.6592 6.82699 13.6592 6.84946V7.11138C13.6592 7.13385 13.641 7.15204 13.6185 7.15204H13.6162C13.5938 7.15204 13.5755 7.13382 13.5755 7.11138V6.84946C13.5755 6.82699 13.5574 6.8088 13.5349 6.8088H13.5315C13.509 6.8088 13.4908 6.82699 13.4908 6.84946V7.11138C13.4908 7.13385 13.4726 7.15204 13.4501 7.15204H13.4489C13.4264 7.15204 13.4082 7.13382 13.4082 7.11138V6.76576C13.4082 6.74329 13.4264 6.7251 13.4489 6.7251H13.7858C13.8083 6.7251 13.8265 6.74329 13.8265 6.76576V6.85389C13.8265 6.87636 13.8447 6.89458 13.8672 6.89458H14.0368C14.0593 6.89458 14.0775 6.87636 14.0775 6.85389V6.84946C14.0775 6.82699 14.0593 6.8088 14.0368 6.8088H13.9509C13.9284 6.8088 13.9102 6.79058 13.9102 6.76811V6.76579C13.9101 6.74332 13.9284 6.7251 13.9509 6.7251Z" fill="#F5F5F5"/>
<path d="M13.2827 6.7251H13.2793C13.2568 6.7251 13.2386 6.74329 13.2386 6.76576V6.85389C13.2386 6.87636 13.2204 6.89458 13.1979 6.89458H13.0294C13.0069 6.89458 12.9887 6.87636 12.9887 6.85389V6.76576C12.9887 6.74329 12.9705 6.7251 12.948 6.7251H12.611C12.5886 6.7251 12.5703 6.74329 12.5703 6.76576V6.93976C12.5703 6.96223 12.5886 6.98045 12.611 6.98045H12.7807C12.8031 6.98045 12.8213 6.96223 12.8213 6.93976V6.9353C12.8213 6.91283 12.8031 6.89464 12.7807 6.89464H12.6947C12.6722 6.89464 12.654 6.87642 12.654 6.85395V6.84952C12.654 6.82705 12.6722 6.80886 12.6947 6.80886H12.8644C12.8868 6.80886 12.905 6.82705 12.905 6.84952V6.93978C12.905 6.96226 12.9232 6.98048 12.9457 6.98048H13.2827C13.3052 6.98048 13.3234 6.96226 13.3234 6.93978V6.76579C13.3233 6.74332 13.3051 6.7251 13.2827 6.7251ZM13.1153 6.7251H13.113C13.0906 6.7251 13.0723 6.74329 13.0723 6.76576V6.76808C13.0723 6.79055 13.0906 6.80877 13.113 6.80877H13.1153C13.1378 6.80877 13.156 6.79055 13.156 6.76808V6.76576C13.1559 6.74332 13.1378 6.7251 13.1153 6.7251ZM13.2827 7.06623H12.2752C12.2528 7.06623 12.2345 7.08442 12.2345 7.10689V7.11138C12.2345 7.13385 12.2528 7.15204 12.2752 7.15204H13.2827C13.3051 7.15204 13.3233 7.13382 13.3233 7.11138V7.10689C13.3233 7.08445 13.3051 7.06623 13.2827 7.06623ZM12.2752 6.7251H12.4459C12.4684 6.7251 12.4866 6.74329 12.4866 6.76576V6.93976C12.4866 6.96223 12.4684 6.98045 12.4459 6.98045H12.1926C12.1701 6.98045 12.1519 6.99864 12.1519 7.02111V7.11138C12.1519 7.13385 12.1337 7.15204 12.1112 7.15204H12.1078C12.0854 7.15204 12.0671 7.13382 12.0671 7.11138V6.84946C12.0671 6.82699 12.0489 6.8088 12.0264 6.8088H12.0231C12.0006 6.8088 11.9824 6.82699 11.9824 6.84946V7.11138C11.9824 7.13385 11.9642 7.15204 11.9417 7.15204H11.9405C11.918 7.15204 11.8998 7.13382 11.8998 7.11138V6.84946C11.8998 6.82699 11.8816 6.8088 11.8591 6.8088H11.8558C11.8333 6.8088 11.8151 6.82699 11.8151 6.84946V7.11138C11.8151 7.13385 11.7969 7.15204 11.7744 7.15204H11.7721C11.7496 7.15204 11.7314 7.13382 11.7314 7.11138V6.76576C11.7314 6.74329 11.7497 6.7251 11.7721 6.7251H12.1112C12.1337 6.7251 12.1519 6.74329 12.1519 6.76576V6.85389C12.1519 6.87636 12.1701 6.89458 12.1926 6.89458H12.3612C12.3837 6.89458 12.4019 6.87636 12.4019 6.85389V6.84946C12.4019 6.82699 12.3837 6.8088 12.3612 6.8088H12.2752C12.2527 6.8088 12.2345 6.79058 12.2345 6.76811V6.76579C12.2345 6.74332 12.2527 6.7251 12.2752 6.7251Z" fill="#F5F5F5"/>
<path d="M11.6068 6.7251H11.6046C11.5821 6.7251 11.5639 6.74329 11.5639 6.76576V6.85389C11.5639 6.87636 11.5457 6.89458 11.5232 6.89458H11.3535C11.331 6.89458 11.3128 6.87636 11.3128 6.85389V6.76576C11.3128 6.74329 11.2946 6.7251 11.2721 6.7251H10.9341C10.9116 6.7251 10.8934 6.74329 10.8934 6.76576V6.93976C10.8934 6.96223 10.9116 6.98045 10.9341 6.98045H11.1037C11.1262 6.98045 11.1444 6.96223 11.1444 6.93976V6.9353C11.1444 6.91283 11.1262 6.89464 11.1037 6.89464H11.0177C10.9953 6.89464 10.977 6.87642 10.977 6.85395V6.84952C10.977 6.82705 10.9953 6.80886 11.0177 6.80886H11.1885C11.2109 6.80886 11.2291 6.82705 11.2291 6.84952V6.93978C11.2291 6.96226 11.2473 6.98048 11.2698 6.98048H11.6068C11.6293 6.98048 11.6475 6.96226 11.6475 6.93978V6.76579C11.6475 6.74332 11.6293 6.7251 11.6068 6.7251ZM11.4395 6.7251H11.4372C11.4147 6.7251 11.3965 6.74329 11.3965 6.76576V6.76808C11.3965 6.79055 11.4147 6.80877 11.4372 6.80877H11.4395C11.4619 6.80877 11.4801 6.79055 11.4801 6.76808V6.76576C11.4802 6.74332 11.462 6.7251 11.4395 6.7251ZM11.6068 7.06623H10.5983C10.5758 7.06623 10.5576 7.08442 10.5576 7.10689V7.11138C10.5576 7.13385 10.5758 7.15204 10.5983 7.15204H11.6068C11.6293 7.15204 11.6475 7.13382 11.6475 7.11138V7.10689C11.6475 7.08445 11.6293 7.06623 11.6068 7.06623ZM10.5983 6.7251H10.769C10.7915 6.7251 10.8097 6.74329 10.8097 6.76576V6.93976C10.8097 6.96223 10.7915 6.98045 10.769 6.98045H10.5157C10.4932 6.98045 10.475 6.99864 10.475 7.02111V7.11138C10.475 7.13385 10.4568 7.15204 10.4344 7.15204H10.432C10.4096 7.15204 10.3914 7.13382 10.3914 7.11138V6.84946C10.3914 6.82699 10.3732 6.8088 10.3507 6.8088H10.3473C10.3248 6.8088 10.3066 6.82699 10.3066 6.84946V7.11138C10.3066 7.13385 10.2884 7.15204 10.266 7.15204H10.2626C10.2401 7.15204 10.2219 7.13382 10.2219 7.11138V6.84946C10.2219 6.82699 10.2037 6.8088 10.1812 6.8088H10.18C10.1575 6.8088 10.1393 6.82699 10.1393 6.84946V7.11138C10.1393 7.13385 10.1211 7.15204 10.0986 7.15204H10.0963C10.0739 7.15204 10.0557 7.13382 10.0557 7.11138V6.76576C10.0557 6.74329 10.0739 6.7251 10.0963 6.7251H10.4344C10.4569 6.7251 10.4751 6.74329 10.4751 6.76576V6.85389C10.4751 6.87636 10.4933 6.89458 10.5158 6.89458H10.6854C10.7079 6.89458 10.7261 6.87636 10.7261 6.85389V6.84946C10.7261 6.82699 10.7079 6.8088 10.6854 6.8088H10.5983C10.5758 6.8088 10.5576 6.79058 10.5576 6.76811V6.76579C10.5576 6.74332 10.5758 6.7251 10.5983 6.7251Z" fill="#F5F5F5"/>
<path d="M9.93158 6.7251H9.92932C9.90685 6.7251 9.88863 6.74329 9.88863 6.76576V6.85389C9.88863 6.87636 9.87041 6.89458 9.84797 6.89458H9.67834C9.65587 6.89458 9.63767 6.87636 9.63767 6.85389V6.76576C9.63767 6.74329 9.61945 6.7251 9.59698 6.7251H9.25889C9.23642 6.7251 9.21823 6.74329 9.21823 6.76576V6.93976C9.21823 6.96223 9.23642 6.98045 9.25889 6.98045H9.42961C9.45208 6.98045 9.4703 6.96223 9.4703 6.93976V6.9353C9.4703 6.91283 9.45208 6.89464 9.42961 6.89464H9.34362C9.32115 6.89464 9.30296 6.87642 9.30296 6.85395V6.84952C9.30296 6.82705 9.32115 6.80886 9.34362 6.80886H9.51325C9.53572 6.80886 9.55391 6.82705 9.55391 6.84952V6.93978C9.55391 6.96226 9.57214 6.98048 9.59461 6.98048H9.93158C9.95405 6.98048 9.97227 6.96226 9.97227 6.93978V6.76579C9.97224 6.74332 9.95402 6.7251 9.93158 6.7251ZM9.76421 6.7251H9.76195C9.73948 6.7251 9.72129 6.74329 9.72129 6.76576V6.76808C9.72129 6.79055 9.73951 6.80877 9.76195 6.80877H9.76421C9.78668 6.80877 9.8049 6.79055 9.8049 6.76808V6.76576C9.80487 6.74332 9.78668 6.7251 9.76421 6.7251ZM9.93158 7.06623H8.92412C8.90165 7.06623 8.88346 7.08442 8.88346 7.10689V7.11138C8.88346 7.13385 8.90165 7.15204 8.92412 7.15204H9.93158C9.95405 7.15204 9.97227 7.13382 9.97227 7.11138V7.10689C9.97224 7.08445 9.95402 7.06623 9.93158 7.06623ZM8.92412 6.7251H9.09483C9.1173 6.7251 9.13553 6.74329 9.13553 6.76576V6.93976C9.13553 6.96223 9.1173 6.98045 9.09483 6.98045H8.83933C8.81686 6.98045 8.79864 6.99864 8.79864 7.02111V7.11138C8.79864 7.13385 8.78045 7.15204 8.75798 7.15204H8.75572C8.73325 7.15204 8.71503 7.13382 8.71503 7.11138V6.84946C8.71503 6.82699 8.69681 6.8088 8.67434 6.8088H8.6731C8.65063 6.8088 8.63241 6.82699 8.63241 6.84946V7.11138C8.63241 7.13385 8.61422 7.15204 8.59172 7.15204H8.58835C8.56588 7.15204 8.54769 7.13382 8.54769 7.11138V6.84946C8.54769 6.82699 8.52946 6.8088 8.50699 6.8088H8.50468C8.48221 6.8088 8.46401 6.82699 8.46401 6.84946V7.11138C8.46401 7.13385 8.44579 7.15204 8.42332 7.15204H8.42106C8.39859 7.15204 8.38037 7.13382 8.38037 7.11138V6.76576C8.38037 6.74329 8.39859 6.7251 8.42106 6.7251H8.75804C8.78051 6.7251 8.7987 6.74329 8.7987 6.76576V6.85389C8.7987 6.87636 8.81692 6.89458 8.83939 6.89458H9.01011C9.03258 6.89458 9.0508 6.87636 9.0508 6.85389V6.84946C9.0508 6.82699 9.03261 6.8088 9.01011 6.8088H8.92412C8.90165 6.8088 8.88346 6.79058 8.88346 6.76811V6.76579C8.88346 6.74332 8.90165 6.7251 8.92412 6.7251Z" fill="#F5F5F5"/>
<path d="M8.25574 6.7251H8.25343C8.23095 6.7251 8.21276 6.74329 8.21276 6.76576V6.85389C8.21276 6.87636 8.19457 6.89458 8.1721 6.89458H8.00247C7.98 6.89458 7.9618 6.87636 7.9618 6.85389V6.76576C7.9618 6.74329 7.94358 6.7251 7.92111 6.7251H7.58303C7.56056 6.7251 7.54236 6.74329 7.54236 6.76576V6.93976C7.54236 6.96223 7.56056 6.98045 7.58303 6.98045H7.75374C7.77621 6.98045 7.79443 6.96223 7.79443 6.93976V6.9353C7.79443 6.91283 7.77621 6.89464 7.75374 6.89464H7.66673C7.64426 6.89464 7.62606 6.87642 7.62606 6.85395V6.84952C7.62606 6.82705 7.64429 6.80886 7.66673 6.80886H7.83636C7.85883 6.80886 7.87702 6.82705 7.87702 6.84952V6.93978C7.87702 6.96226 7.89524 6.98048 7.91771 6.98048H8.2558C8.27827 6.98048 8.29649 6.96226 8.29649 6.93978V6.76579C8.2964 6.74332 8.27821 6.7251 8.25574 6.7251ZM8.08728 6.7251H8.08605C8.06358 6.7251 8.04536 6.74329 8.04536 6.76576V6.76808C8.04536 6.79055 8.06355 6.80877 8.08605 6.80877H8.08728C8.10975 6.80877 8.12795 6.79055 8.12795 6.76808V6.76576C8.12798 6.74332 8.10975 6.7251 8.08728 6.7251ZM8.25574 7.06623H7.24723C7.22476 7.06623 7.20656 7.08442 7.20656 7.10689V7.11138C7.20656 7.13385 7.22478 7.15204 7.24723 7.15204H8.25574C8.27821 7.15204 8.29643 7.13382 8.29643 7.11138V7.10689C8.2964 7.08445 8.27821 7.06623 8.25574 7.06623ZM7.24717 6.7251H7.41788C7.44035 6.7251 7.45854 6.74329 7.45854 6.76576V6.93976C7.45854 6.96223 7.44035 6.98045 7.41788 6.98045H7.16347C7.141 6.98045 7.1228 6.99864 7.1228 7.02111V7.11138C7.1228 7.13385 7.10461 7.15204 7.08211 7.15204H7.07985C7.05738 7.15204 7.03916 7.13382 7.03916 7.11138V6.84946C7.03916 6.82699 7.02097 6.8088 6.9985 6.8088H6.99618C6.97371 6.8088 6.95552 6.82699 6.95552 6.84946V7.11138C6.95552 7.13385 6.93729 7.15204 6.91482 7.15204H6.91257C6.8901 7.15204 6.8719 7.13382 6.8719 7.11138V6.84946C6.8719 6.82699 6.85368 6.8088 6.83124 6.8088H6.82895C6.80648 6.8088 6.78829 6.82699 6.78829 6.84946V7.11138C6.78829 7.13385 6.7701 7.15204 6.7476 7.15204H6.74528C6.72281 7.15204 6.70459 7.13382 6.70459 7.11138V6.76576C6.70459 6.74329 6.72278 6.7251 6.74528 6.7251H7.08226C7.10473 6.7251 7.12295 6.74329 7.12295 6.76576V6.85389C7.12295 6.87636 7.14114 6.89458 7.16361 6.89458H7.33433C7.3568 6.89458 7.37502 6.87636 7.37502 6.85389V6.84946C7.37502 6.82699 7.3568 6.8088 7.33433 6.8088H7.24731C7.22484 6.8088 7.20665 6.79058 7.20665 6.76811V6.76579C7.2065 6.74332 7.2247 6.7251 7.24717 6.7251Z" fill="#F5F5F5"/>
<path d="M6.57996 6.7251H6.57764C6.55517 6.7251 6.53695 6.74329 6.53695 6.76576V6.85389C6.53695 6.87636 6.51876 6.89458 6.49629 6.89458H6.32666C6.30419 6.89458 6.28599 6.87636 6.28599 6.85389V6.76576C6.28599 6.74329 6.26777 6.7251 6.24533 6.7251H5.90724C5.88477 6.7251 5.86658 6.74329 5.86658 6.76576V6.93976C5.86658 6.96223 5.88477 6.98045 5.90724 6.98045H6.07693C6.0994 6.98045 6.1176 6.96223 6.1176 6.93976V6.9353C6.1176 6.91283 6.0994 6.89464 6.07693 6.89464H5.992C5.96953 6.89464 5.95131 6.87642 5.95131 6.85395V6.84952C5.95131 6.82705 5.96953 6.80886 5.992 6.80886H6.16057C6.18304 6.80886 6.20127 6.82705 6.20127 6.84952V6.93978C6.20127 6.96226 6.21946 6.98048 6.24193 6.98048H6.58002C6.60249 6.98048 6.62071 6.96226 6.62071 6.93978V6.76579C6.62065 6.74332 6.60243 6.7251 6.57996 6.7251ZM6.41153 6.7251H6.4103C6.38783 6.7251 6.36961 6.74329 6.36961 6.76576V6.76808C6.36961 6.79055 6.38783 6.80877 6.4103 6.80877H6.41153C6.434 6.80877 6.45219 6.79055 6.45219 6.76808V6.76576C6.45219 6.74332 6.434 6.7251 6.41153 6.7251ZM6.57996 7.06623H5.57141C5.54894 7.06623 5.53075 7.08442 5.53075 7.10689V7.11138C5.53075 7.13385 5.54894 7.15204 5.57141 7.15204H6.57993C6.6024 7.15204 6.62062 7.13382 6.62062 7.11138V7.10689C6.62065 7.08445 6.60243 7.06623 6.57996 7.06623ZM5.57141 6.7251H5.74104C5.76351 6.7251 5.78171 6.74329 5.78171 6.76576V6.93976C5.78171 6.96223 5.76351 6.98045 5.74104 6.98045H5.48774C5.46527 6.98045 5.44708 6.99864 5.44708 7.02111V7.11138C5.44708 7.13385 5.42889 7.15204 5.40639 7.15204H5.40407C5.3816 7.15204 5.36341 7.13382 5.36341 7.11138V6.84946C5.36341 6.82699 5.34521 6.8088 5.32274 6.8088H5.32046C5.29799 6.8088 5.27979 6.82699 5.27979 6.84946V7.11138C5.27979 7.13385 5.2616 7.15204 5.2391 7.15204H5.23679C5.21432 7.15204 5.19609 7.13382 5.19609 7.11138V6.84946C5.19609 6.82699 5.1779 6.8088 5.15543 6.8088H5.15317C5.1307 6.8088 5.11251 6.82699 5.11251 6.84946V7.11138C5.11251 7.13385 5.09429 7.15204 5.07182 7.15204H5.0695C5.04703 7.15204 5.02881 7.13382 5.02881 7.11138V6.76576C5.02881 6.74329 5.04703 6.7251 5.0695 6.7251H5.40656C5.42903 6.7251 5.44726 6.74329 5.44726 6.76576V6.85389C5.44726 6.87636 5.46545 6.89458 5.48792 6.89458H5.65857C5.68104 6.89458 5.69927 6.87636 5.69927 6.85389V6.84946C5.69927 6.82699 5.68107 6.8088 5.65857 6.8088H5.57156C5.54909 6.8088 5.5309 6.79058 5.5309 6.76811V6.76579C5.53072 6.74332 5.54897 6.7251 5.57141 6.7251Z" fill="#F5F5F5"/>
<path d="M4.9047 6.7251H4.90238C4.87991 6.7251 4.86169 6.74329 4.86169 6.76576V6.85389C4.86169 6.87636 4.84349 6.89458 4.82102 6.89458H4.65034C4.62787 6.89458 4.60965 6.87636 4.60965 6.85389V6.76576C4.60965 6.74329 4.59145 6.7251 4.56898 6.7251H4.23192C4.20945 6.7251 4.19123 6.74329 4.19123 6.76576V6.93976C4.19123 6.96223 4.20942 6.98045 4.23192 6.98045H4.40161C4.42408 6.98045 4.4423 6.96223 4.4423 6.93976V6.9353C4.4423 6.91283 4.42411 6.89464 4.40161 6.89464H4.31451C4.29204 6.89464 4.27382 6.87642 4.27382 6.85395V6.84952C4.27382 6.82705 4.29201 6.80886 4.31451 6.80886H4.48634C4.50881 6.80886 4.527 6.82705 4.527 6.84952V6.93978C4.527 6.96226 4.54522 6.98048 4.56769 6.98048H4.90467C4.92714 6.98048 4.94536 6.96226 4.94536 6.93978V6.76579C4.94539 6.74332 4.92717 6.7251 4.9047 6.7251ZM4.73732 6.7251H4.73392C4.71145 6.7251 4.69326 6.74329 4.69326 6.76576V6.76808C4.69326 6.79055 4.71145 6.80877 4.73392 6.80877H4.73732C4.75979 6.80877 4.77799 6.79055 4.77799 6.76808V6.76576C4.77802 6.74332 4.75979 6.7251 4.73732 6.7251ZM4.9047 7.06623H3.89618C3.87371 7.06623 3.85549 7.08442 3.85549 7.10689V7.11138C3.85549 7.13385 3.87368 7.15204 3.89618 7.15204H4.9047C4.92717 7.15204 4.94539 7.13382 4.94539 7.11138V7.10689C4.94539 7.08445 4.92717 7.06623 4.9047 7.06623ZM3.89612 6.7251H4.06575C4.08822 6.7251 4.10644 6.74329 4.10644 6.76576V6.93976C4.10644 6.96223 4.08825 6.98045 4.06575 6.98045H3.81245C3.78998 6.98045 3.77179 6.99864 3.77179 7.02111V7.11138C3.77179 7.13385 3.75359 7.15204 3.73109 7.15204H3.72878C3.70631 7.15204 3.68809 7.13382 3.68809 7.11138V6.84946C3.68809 6.82699 3.66989 6.8088 3.64742 6.8088H3.64514C3.62267 6.8088 3.60447 6.82699 3.60447 6.84946V7.11138C3.60447 7.13385 3.58628 7.15204 3.56378 7.15204H3.56146C3.53899 7.15204 3.52077 7.13382 3.52077 7.11138V6.84946C3.52077 6.82699 3.50258 6.8088 3.48008 6.8088H3.47671C3.45424 6.8088 3.43604 6.82699 3.43604 6.84946V7.11138C3.43604 7.13385 3.41785 7.15204 3.39538 7.15204H3.39421C3.37174 7.15204 3.35352 7.13382 3.35352 7.11138V6.76576C3.35352 6.74329 3.37171 6.7251 3.39421 6.7251H3.73118C3.75365 6.7251 3.77187 6.74329 3.77187 6.76576V6.85389C3.77187 6.87636 3.79007 6.89458 3.81254 6.89458H3.98111C4.00358 6.89458 4.02181 6.87636 4.02181 6.85389V6.84946C4.02181 6.82699 4.00361 6.8088 3.98111 6.8088H3.89618C3.87371 6.8088 3.85549 6.79058 3.85549 6.76811V6.76579C3.85546 6.74332 3.87365 6.7251 3.89612 6.7251Z" fill="#F5F5F5"/>
<path d="M3.22791 6.7251H3.22668C3.20421 6.7251 3.18598 6.74329 3.18598 6.76576V6.85389C3.18598 6.87636 3.16779 6.89458 3.14532 6.89458H2.97563C2.95316 6.89458 2.93497 6.87636 2.93497 6.85389V6.76576C2.93497 6.74329 2.91677 6.7251 2.8943 6.7251H2.55625C2.53378 6.7251 2.51558 6.74329 2.51558 6.76576V6.93976C2.51558 6.96223 2.53378 6.98045 2.55625 6.98045H2.72476C2.74723 6.98045 2.76546 6.96223 2.76546 6.93976V6.9353C2.76546 6.91283 2.74726 6.89464 2.72476 6.89464H2.63884C2.61637 6.89464 2.59817 6.87642 2.59817 6.85395V6.84952C2.59817 6.82705 2.61637 6.80886 2.63884 6.80886H2.80955C2.83202 6.80886 2.85024 6.82705 2.85024 6.84952V6.93978C2.85024 6.96226 2.86844 6.98048 2.89091 6.98048H3.22797C3.25044 6.98048 3.26866 6.96226 3.26866 6.93978V6.76579C3.26863 6.74332 3.25038 6.7251 3.22791 6.7251ZM3.06056 6.7251H3.05825C3.03578 6.7251 3.01756 6.74329 3.01756 6.76576V6.76808C3.01756 6.79055 3.03575 6.80877 3.05825 6.80877H3.06056C3.08303 6.80877 3.10123 6.79055 3.10123 6.76808V6.76576C3.10126 6.74332 3.08303 6.7251 3.06056 6.7251ZM3.22791 7.06623H2.21831C2.19584 7.06623 2.17765 7.08442 2.17765 7.10689V7.11138C2.17765 7.13385 2.19584 7.15204 2.21831 7.15204H3.22794C3.25041 7.15204 3.26863 7.13382 3.26863 7.11138V7.10689C3.26863 7.08445 3.25038 7.06623 3.22791 7.06623ZM2.21831 6.7251H2.39014C2.41261 6.7251 2.43083 6.74329 2.43083 6.76576V6.93976C2.43083 6.96223 2.41264 6.98045 2.39014 6.98045H2.13678C2.11431 6.98045 2.09611 6.99864 2.09611 7.02111V7.11138C2.09611 7.13385 2.07792 7.15204 2.05542 7.15204H2.05205C2.02958 7.15204 2.01139 7.13382 2.01139 7.11138V6.84946C2.01139 6.82699 1.99319 6.8088 1.97069 6.8088H1.96844C1.94597 6.8088 1.92774 6.82699 1.92774 6.84946V7.11138C1.92774 7.13385 1.90955 7.15204 1.88708 7.15204H1.88582C1.86335 7.15204 1.84513 7.13382 1.84513 7.11138V6.84946C1.84513 6.82699 1.82693 6.8088 1.80446 6.8088H1.80109C1.77862 6.8088 1.7604 6.82699 1.7604 6.84946V7.11138C1.7604 7.13385 1.74221 7.15204 1.71974 7.15204H1.71742C1.69495 7.15204 1.67676 7.13382 1.67676 7.11138V6.76576C1.67676 6.74329 1.69495 6.7251 1.71742 6.7251H2.05551C2.07798 6.7251 2.0962 6.74329 2.0962 6.76576V6.85389C2.0962 6.87636 2.11439 6.89458 2.13686 6.89458H2.30649C2.32896 6.89458 2.34716 6.87636 2.34716 6.85389V6.84946C2.34716 6.82699 2.32896 6.8088 2.30649 6.8088H2.21834C2.19587 6.8088 2.17767 6.79058 2.17767 6.76811V6.76579C2.17759 6.74332 2.19584 6.7251 2.21831 6.7251Z" fill="#F5F5F5"/>
<path d="M1.55232 6.7251H1.55001C1.52754 6.7251 1.50934 6.74329 1.50934 6.76576V6.85389C1.50934 6.87636 1.49115 6.89458 1.46865 6.89458H1.29902C1.27655 6.89458 1.25833 6.87636 1.25833 6.85389V6.76576C1.25833 6.74329 1.24013 6.7251 1.21766 6.7251H0.879549C0.857078 6.7251 0.838856 6.74329 0.838856 6.76576V6.93976C0.838856 6.96223 0.857049 6.98045 0.879549 6.98045H1.04812C1.07059 6.98045 1.08879 6.96223 1.08879 6.93976V6.9353C1.08879 6.91283 1.07059 6.89464 1.04812 6.89464H0.962137C0.939666 6.89464 0.921444 6.87642 0.921444 6.85395V6.84952C0.921444 6.82705 0.939666 6.80886 0.962137 6.80886H1.13396C1.15643 6.80886 1.17466 6.82705 1.17466 6.84952V6.93978C1.17466 6.96226 1.19285 6.98048 1.21532 6.98048H1.55229C1.57476 6.98048 1.59296 6.96226 1.59296 6.93978V6.76579C1.59301 6.74332 1.57479 6.7251 1.55232 6.7251ZM1.38498 6.7251H1.38266C1.36019 6.7251 1.342 6.74329 1.342 6.76576V6.76808C1.342 6.79055 1.36019 6.80877 1.38266 6.80877H1.38498C1.40745 6.80877 1.42564 6.79055 1.42564 6.76808V6.76576C1.42564 6.74332 1.40745 6.7251 1.38498 6.7251ZM1.55232 7.06623H0.544892C0.522421 7.06623 0.504198 7.08442 0.504198 7.10689V7.11138C0.504198 7.13385 0.522421 7.15204 0.544892 7.15204H1.55232C1.57479 7.15204 1.59299 7.13382 1.59299 7.11138V7.10689C1.59301 7.08445 1.57479 7.06623 1.55232 7.06623ZM0.544892 6.7251H0.71452C0.736991 6.7251 0.755213 6.74329 0.755213 6.76576V6.93976C0.755213 6.96223 0.73702 6.98045 0.71452 6.98045H0.459081C0.43661 6.98045 0.418388 6.99864 0.418388 7.02111V7.11138C0.418388 7.13385 0.400195 7.15204 0.377695 7.15204H0.377577C0.355107 7.15204 0.336884 7.13382 0.336884 7.11138V6.84946C0.336884 6.82699 0.318691 6.8088 0.296191 6.8088H0.291679C0.269208 6.8088 0.250986 6.82699 0.250986 6.84946V7.11138C0.250986 7.13385 0.232793 7.15204 0.210293 7.15204H0.210205C0.187734 7.15204 0.169541 7.13382 0.169541 7.11138V6.84946C0.169541 6.82699 0.151318 6.8088 0.128847 6.8088H0.126474C0.104004 6.8088 0.0857811 6.82699 0.0857811 6.84946V7.11138C0.0857811 7.13385 0.0675878 7.15204 0.0451171 7.15204H0.040664C0.0181933 7.15204 0 7.13382 0 7.11138V6.76576C0 6.74329 0.0181933 6.7251 0.040664 6.7251H0.377636C0.400107 6.7251 0.418329 6.74329 0.418329 6.76576V6.85389C0.418329 6.87636 0.436523 6.89458 0.459023 6.89458H0.630819C0.65329 6.89458 0.671483 6.87636 0.671483 6.85389V6.84946C0.671483 6.82699 0.65329 6.8088 0.630819 6.8088H0.544921C0.52245 6.8088 0.504228 6.79058 0.504228 6.76811V6.76579C0.504198 6.74332 0.522421 6.7251 0.544892 6.7251Z" fill="#F5F5F5"/>
<path d="M14.9594 6.46582H14.2867C14.2642 6.46582 14.246 6.48404 14.246 6.50651V6.59678C14.246 6.61925 14.2642 6.63744 14.2867 6.63744H14.9594C14.9819 6.63744 15.0001 6.61925 15.0001 6.59678V6.50651C15.0001 6.48404 14.9819 6.46582 14.9594 6.46582ZM14.1206 6.46582H13.4489C13.4264 6.46582 13.4082 6.48404 13.4082 6.50651V6.59678C13.4082 6.61925 13.4264 6.63744 13.4489 6.63744H14.1206C14.143 6.63744 14.1613 6.61925 14.1613 6.59678V6.50651C14.1613 6.48404 14.143 6.46582 14.1206 6.46582Z" fill="#F5F5F5"/>
<path d="M13.2827 6.46582H12.611C12.5885 6.46582 12.5703 6.48404 12.5703 6.50651V6.59678C12.5703 6.61925 12.5885 6.63744 12.611 6.63744H13.2827C13.3052 6.63744 13.3234 6.61925 13.3234 6.59678V6.50651C13.3233 6.48404 13.3051 6.46582 13.2827 6.46582ZM12.4459 6.46582H11.7721C11.7496 6.46582 11.7314 6.48404 11.7314 6.50651V6.59678C11.7314 6.61925 11.7497 6.63744 11.7721 6.63744H12.4459C12.4684 6.63744 12.4866 6.61925 12.4866 6.59678V6.50651C12.4866 6.48404 12.4684 6.46582 12.4459 6.46582Z" fill="#F5F5F5"/>
<path d="M11.6068 6.46582H10.9341C10.9116 6.46582 10.8934 6.48404 10.8934 6.50651V6.59678C10.8934 6.61925 10.9116 6.63744 10.9341 6.63744H11.6068C11.6293 6.63744 11.6475 6.61925 11.6475 6.59678V6.50651C11.6476 6.48404 11.6293 6.46582 11.6068 6.46582ZM10.7691 6.46582H10.0963C10.0739 6.46582 10.0557 6.48404 10.0557 6.50651V6.59678C10.0557 6.61925 10.0739 6.63744 10.0963 6.63744H10.7691C10.7915 6.63744 10.8098 6.61925 10.8098 6.59678V6.50651C10.8098 6.48404 10.7915 6.46582 10.7691 6.46582Z" fill="#F5F5F5"/>
<path d="M9.93115 6.46582H9.25841C9.23594 6.46582 9.21774 6.48404 9.21774 6.50651V6.59678C9.21774 6.61925 9.23594 6.63744 9.25841 6.63744H9.93115C9.95362 6.63744 9.97184 6.61925 9.97184 6.59678V6.50651C9.97181 6.48404 9.95359 6.46582 9.93115 6.46582ZM9.0944 6.46582H8.42058C8.39811 6.46582 8.37988 6.48404 8.37988 6.50651V6.59678C8.37988 6.61925 8.39811 6.63744 8.42058 6.63744H9.0944C9.11687 6.63744 9.1351 6.61925 9.1351 6.59678V6.50651C9.1351 6.48404 9.1169 6.46582 9.0944 6.46582Z" fill="#F5F5F5"/>
<path d="M8.25589 6.46582H7.58308C7.56061 6.46582 7.54242 6.48404 7.54242 6.50651V6.59678C7.54242 6.61925 7.56061 6.63744 7.58308 6.63744H8.25589C8.27836 6.63744 8.29658 6.61925 8.29658 6.59678V6.50651C8.29655 6.48404 8.27836 6.46582 8.25589 6.46582ZM7.41808 6.46582H6.74528C6.72281 6.46582 6.70459 6.48404 6.70459 6.50651V6.59678C6.70459 6.61925 6.72278 6.63744 6.74528 6.63744H7.41808C7.44056 6.63744 7.45875 6.61925 7.45875 6.59678V6.50651C7.45875 6.48404 7.44056 6.46582 7.41808 6.46582Z" fill="#F5F5F5"/>
<path d="M6.5801 6.46582H5.9073C5.88483 6.46582 5.86664 6.48404 5.86664 6.50651V6.59678C5.86664 6.61925 5.88483 6.63744 5.9073 6.63744H6.5801C6.60257 6.63744 6.6208 6.61925 6.6208 6.59678V6.50651C6.6208 6.48404 6.60257 6.46582 6.5801 6.46582ZM5.74119 6.46582H5.0695C5.04703 6.46582 5.02881 6.48404 5.02881 6.50651V6.59678C5.02881 6.61925 5.04703 6.63744 5.0695 6.63744H5.74119C5.76366 6.63744 5.78185 6.61925 5.78185 6.59678V6.50651C5.78188 6.48404 5.76366 6.46582 5.74119 6.46582Z" fill="#F5F5F5"/>
<path d="M4.90475 6.46582H4.23195C4.20948 6.46582 4.19126 6.48404 4.19126 6.50651V6.59678C4.19126 6.61925 4.20945 6.63744 4.23195 6.63744H4.90475C4.92722 6.63744 4.94545 6.61925 4.94545 6.59678V6.50651C4.94545 6.48404 4.92722 6.46582 4.90475 6.46582ZM4.06584 6.46582H3.39421C3.37174 6.46582 3.35352 6.48404 3.35352 6.50651V6.59678C3.35352 6.61925 3.37171 6.63744 3.39421 6.63744H4.06584C4.08831 6.63744 4.10653 6.61925 4.10653 6.59678V6.50651C4.1065 6.48404 4.08831 6.46582 4.06584 6.46582Z" fill="#F5F5F5"/>
<path d="M3.22802 6.46582H2.55637C2.53389 6.46582 2.5157 6.48404 2.5157 6.50651V6.59678C2.5157 6.61925 2.53389 6.63744 2.55637 6.63744H3.22805C3.25052 6.63744 3.26875 6.61925 3.26875 6.59678V6.50651C3.26875 6.48404 3.25049 6.46582 3.22802 6.46582ZM2.39022 6.46582H1.71742C1.69495 6.46582 1.67676 6.48404 1.67676 6.50651V6.59678C1.67676 6.61925 1.69495 6.63744 1.71742 6.63744H2.39022C2.41269 6.63744 2.43092 6.61925 2.43092 6.59678V6.50651C2.43092 6.48404 2.41269 6.46582 2.39022 6.46582Z" fill="#F5F5F5"/>
<path d="M1.55232 6.46582H0.879549C0.857079 6.46582 0.838856 6.48404 0.838856 6.50651V6.59678C0.838856 6.61925 0.857049 6.63744 0.879549 6.63744H1.55235C1.57482 6.63744 1.59301 6.61925 1.59301 6.59678V6.50651C1.59301 6.48404 1.57479 6.46582 1.55232 6.46582ZM0.714491 6.46582H0.040664C0.0181933 6.46582 0 6.48404 0 6.50651V6.59678C0 6.61925 0.0181933 6.63744 0.040664 6.63744H0.714491C0.736962 6.63744 0.755184 6.61925 0.755184 6.59678V6.50651C0.755213 6.48404 0.736991 6.46582 0.714491 6.46582Z" fill="#F5F5F5"/>
<path d="M7.28624 3.69147C7.363 3.71192 7.44486 3.68939 7.50111 3.63212C7.58601 3.71807 7.72514 3.72013 7.81309 3.63625C7.87039 3.581 7.89392 3.49709 7.87344 3.42139C7.79879 3.54212 7.64126 3.581 7.52053 3.50526C7.51438 3.50113 7.50621 3.49706 7.50111 3.49299C7.38758 3.57686 7.22698 3.55436 7.14102 3.44187C7.13791 3.43568 7.13182 3.42751 7.12772 3.42142C7.09702 3.54007 7.16862 3.66279 7.28624 3.69147Z" fill="#FF4B55"/>
<path d="M7.76329 6.08137C8.03827 5.9304 8.26776 5.69254 8.39359 5.37924C8.60786 4.84223 8.47292 4.23608 8.06303 3.84292C8.04894 3.82941 8.02752 3.84749 8.03775 3.86413C8.44201 4.52339 8.28276 5.38973 7.65718 5.86446L7.68709 3.94941C7.6875 3.92342 7.6759 3.89867 7.65572 3.88229L7.55397 3.80006C7.5228 3.77486 7.47827 3.77501 7.44727 3.80035L7.34702 3.88229C7.32701 3.89864 7.31558 3.92325 7.31599 3.94909L7.34505 5.86551C6.71939 5.39105 6.55978 4.52389 6.96343 3.86419C6.97363 3.84755 6.95221 3.82947 6.93815 3.843C6.52905 4.23617 6.39326 4.84229 6.6075 5.37927C6.73333 5.69251 6.96279 5.9304 7.23786 6.08137C7.06281 6.14134 6.87882 6.17319 6.69279 6.16785C6.67313 6.1673 6.66917 6.19495 6.68801 6.20064C6.92438 6.27239 7.16748 6.27731 7.39606 6.22607L7.48579 6.40018C7.49201 6.41219 7.5092 6.41225 7.51544 6.40021L7.60579 6.22615C7.83437 6.27731 8.07756 6.2723 8.3141 6.20055C8.33291 6.19487 8.32899 6.16721 8.30933 6.16777C8.12306 6.17316 7.93864 6.14134 7.76329 6.08137Z" fill="#FF4B55"/>
<path d="M8.8825 4.30114C8.74176 4.0382 8.50803 3.8389 8.22977 3.74125C8.21234 3.73513 8.19874 3.75816 8.21298 3.7699C8.82722 4.27589 8.95036 5.17709 8.47531 5.82953C8.45073 5.86228 8.42413 5.89706 8.39855 5.92565C8.98176 5.61264 9.19762 4.88427 8.8825 4.30114Z" fill="#FF4B55"/>
<path d="M6.5265 5.82949C6.05151 5.17705 6.17365 4.27588 6.78777 3.7699C6.80204 3.75815 6.78841 3.73515 6.77098 3.74124C6.4931 3.83892 6.26098 4.03817 6.11933 4.30111C5.80222 4.88423 6.02013 5.61258 6.60425 5.92559C6.57665 5.89699 6.55005 5.86225 6.5265 5.82949Z" fill="#FF4B55"/>
</svg>
