<svg width="18" height="18" viewBox="0 0 18 18" fill="none" xmlns="http://www.w3.org/2000/svg">
<path d="M17.5605 4.84775C17.3272 4.74474 17.0547 4.79582 16.8747 4.97599L15.0478 6.80207L11.7151 6.21277L11.1255 2.87984L12.9525 1.05379C13.1323 0.873595 13.1835 0.601338 13.0807 0.368006C12.978 0.134967 12.7417 -0.0113602 12.4876 0.000760493C11.2425 0.0589104 10.0152 0.561534 9.06408 1.51295C7.60348 2.973 7.19973 5.08317 7.83975 6.90918L0.673303 14.0772C-0.224434 14.9743 -0.224434 16.4295 0.673303 17.327C1.10379 17.7578 1.68807 18 2.29781 18C2.90695 18 3.49175 17.7578 3.92223 17.3273L11.1243 10.1252C12.9258 10.7127 14.9837 10.2956 16.4146 8.86383C17.3658 7.91292 17.8686 6.68595 17.9275 5.44118C17.9387 5.1868 17.7939 4.95105 17.5605 4.84775ZM3.41401 15.9564C3.03581 16.3346 2.42187 16.3346 2.04367 15.9564C1.66482 15.5776 1.66482 14.9642 2.04367 14.5854C2.42187 14.2073 3.03581 14.2073 3.41401 14.5854C3.79228 14.9642 3.79228 15.5775 3.41401 15.9564Z" fill="black"/>
</svg>
